<?xml version="1.0" encoding="utf-8" standalone="no"?>
<!DOCTYPE svg PUBLIC "-//W3C//DTD SVG 1.1//EN"
  "http://www.w3.org/Graphics/SVG/1.1/DTD/svg11.dtd">
<svg xmlns:xlink="http://www.w3.org/1999/xlink" width="720.708437pt" height="286.715156pt" viewBox="0 0 720.708437 286.715156" xmlns="http://www.w3.org/2000/svg" version="1.1">
 <metadata>
  <rdf:RDF xmlns:dc="http://purl.org/dc/elements/1.1/" xmlns:cc="http://creativecommons.org/ns#" xmlns:rdf="http://www.w3.org/1999/02/22-rdf-syntax-ns#">
   <cc:Work>
    <dc:type rdf:resource="http://purl.org/dc/dcmitype/StillImage"/>
    <dc:date>2026-03-01T03:46:12.564402</dc:date>
    <dc:format>image/svg+xml</dc:format>
    <dc:creator>
     <cc:Agent>
      <dc:title>Matplotlib v3.9.2, https://matplotlib.org/</dc:title>
     </cc:Agent>
    </dc:creator>
   </cc:Work>
  </rdf:RDF>
 </metadata>
 <defs>
  <style type="text/css">*{stroke-linejoin: round; stroke-linecap: butt}</style>
 </defs>
 <g id="figure_1">
  <g id="patch_1">
   <path d="M 0 286.715156 
L 720.708437 286.715156 
L 720.708437 0 
L 0 0 
z
" style="fill: #ffffff"/>
  </g>
  <g id="axes_1">
   <g id="patch_2">
    <path d="M 43.908438 244.980938 
L 240.849614 244.980938 
L 240.849614 23.220937 
L 43.908438 23.220937 
z
" style="fill: #ffffff"/>
   </g>
   <g id="matplotlib.axis_1">
    <g id="xtick_1">
     <g id="line2d_1">
      <defs>
       <path id="m98013eadce" d="M 0 0 
L 0 6 
" style="stroke: #262626; stroke-width: 1.25"/>
      </defs>
      <g>
       <use xlink:href="#m98013eadce" x="88.667796" y="244.980938" style="fill: #262626; stroke: #262626; stroke-width: 1.25"/>
      </g>
     </g>
     <g id="text_1">
      <!-- 60 -->
      <g style="fill: #262626" transform="translate(82.550765 262.354531) scale(0.11 -0.11)">
       <defs>
        <path id="ArialMT-36" d="M 3184 3459 
L 2625 3416 
Q 2550 3747 2413 3897 
Q 2184 4138 1850 4138 
Q 1581 4138 1378 3988 
Q 1113 3794 959 3422 
Q 806 3050 800 2363 
Q 1003 2672 1297 2822 
Q 1591 2972 1913 2972 
Q 2475 2972 2870 2558 
Q 3266 2144 3266 1488 
Q 3266 1056 3080 686 
Q 2894 316 2569 119 
Q 2244 -78 1831 -78 
Q 1128 -78 684 439 
Q 241 956 241 2144 
Q 241 3472 731 4075 
Q 1159 4600 1884 4600 
Q 2425 4600 2770 4297 
Q 3116 3994 3184 3459 
z
M 888 1484 
Q 888 1194 1011 928 
Q 1134 663 1356 523 
Q 1578 384 1822 384 
Q 2178 384 2434 671 
Q 2691 959 2691 1453 
Q 2691 1928 2437 2201 
Q 2184 2475 1800 2475 
Q 1419 2475 1153 2201 
Q 888 1928 888 1484 
z
" transform="scale(0.015625)"/>
        <path id="ArialMT-30" d="M 266 2259 
Q 266 3072 433 3567 
Q 600 4063 929 4331 
Q 1259 4600 1759 4600 
Q 2128 4600 2406 4451 
Q 2684 4303 2865 4023 
Q 3047 3744 3150 3342 
Q 3253 2941 3253 2259 
Q 3253 1453 3087 958 
Q 2922 463 2592 192 
Q 2263 -78 1759 -78 
Q 1097 -78 719 397 
Q 266 969 266 2259 
z
M 844 2259 
Q 844 1131 1108 757 
Q 1372 384 1759 384 
Q 2147 384 2411 759 
Q 2675 1134 2675 2259 
Q 2675 3391 2411 3762 
Q 2147 4134 1753 4134 
Q 1366 4134 1134 3806 
Q 844 3388 844 2259 
z
" transform="scale(0.015625)"/>
       </defs>
       <use xlink:href="#ArialMT-36"/>
       <use xlink:href="#ArialMT-30" x="55.615234"/>
      </g>
     </g>
    </g>
    <g id="xtick_2">
     <g id="line2d_2">
      <g>
       <use xlink:href="#m98013eadce" x="160.282769" y="244.980938" style="fill: #262626; stroke: #262626; stroke-width: 1.25"/>
      </g>
     </g>
     <g id="text_2">
      <!-- 80 -->
      <g style="fill: #262626" transform="translate(154.165738 262.354531) scale(0.11 -0.11)">
       <defs>
        <path id="ArialMT-38" d="M 1131 2484 
Q 781 2613 612 2850 
Q 444 3088 444 3419 
Q 444 3919 803 4259 
Q 1163 4600 1759 4600 
Q 2359 4600 2725 4251 
Q 3091 3903 3091 3403 
Q 3091 3084 2923 2848 
Q 2756 2613 2416 2484 
Q 2838 2347 3058 2040 
Q 3278 1734 3278 1309 
Q 3278 722 2862 322 
Q 2447 -78 1769 -78 
Q 1091 -78 675 323 
Q 259 725 259 1325 
Q 259 1772 486 2073 
Q 713 2375 1131 2484 
z
M 1019 3438 
Q 1019 3113 1228 2906 
Q 1438 2700 1772 2700 
Q 2097 2700 2305 2904 
Q 2513 3109 2513 3406 
Q 2513 3716 2298 3927 
Q 2084 4138 1766 4138 
Q 1444 4138 1231 3931 
Q 1019 3725 1019 3438 
z
M 838 1322 
Q 838 1081 952 856 
Q 1066 631 1291 507 
Q 1516 384 1775 384 
Q 2178 384 2440 643 
Q 2703 903 2703 1303 
Q 2703 1709 2433 1975 
Q 2163 2241 1756 2241 
Q 1359 2241 1098 1978 
Q 838 1716 838 1322 
z
" transform="scale(0.015625)"/>
       </defs>
       <use xlink:href="#ArialMT-38"/>
       <use xlink:href="#ArialMT-30" x="55.615234"/>
      </g>
     </g>
    </g>
    <g id="xtick_3">
     <g id="line2d_3">
      <g>
       <use xlink:href="#m98013eadce" x="231.897742" y="244.980938" style="fill: #262626; stroke: #262626; stroke-width: 1.25"/>
      </g>
     </g>
     <g id="text_3">
      <!-- 100 -->
      <g style="fill: #262626" transform="translate(222.722195 262.354531) scale(0.11 -0.11)">
       <defs>
        <path id="ArialMT-31" d="M 2384 0 
L 1822 0 
L 1822 3584 
Q 1619 3391 1289 3197 
Q 959 3003 697 2906 
L 697 3450 
Q 1169 3672 1522 3987 
Q 1875 4303 2022 4600 
L 2384 4600 
L 2384 0 
z
" transform="scale(0.015625)"/>
       </defs>
       <use xlink:href="#ArialMT-31"/>
       <use xlink:href="#ArialMT-30" x="55.615234"/>
       <use xlink:href="#ArialMT-30" x="111.230469"/>
      </g>
     </g>
    </g>
    <g id="text_4">
     <!-- Hit rate -->
     <g style="fill: #262626" transform="translate(123.041213 277.130156) scale(0.12 -0.12)">
      <defs>
       <path id="ArialMT-48" d="M 513 0 
L 513 4581 
L 1119 4581 
L 1119 2700 
L 3500 2700 
L 3500 4581 
L 4106 4581 
L 4106 0 
L 3500 0 
L 3500 2159 
L 1119 2159 
L 1119 0 
L 513 0 
z
" transform="scale(0.015625)"/>
       <path id="ArialMT-69" d="M 425 3934 
L 425 4581 
L 988 4581 
L 988 3934 
L 425 3934 
z
M 425 0 
L 425 3319 
L 988 3319 
L 988 0 
L 425 0 
z
" transform="scale(0.015625)"/>
       <path id="ArialMT-74" d="M 1650 503 
L 1731 6 
Q 1494 -44 1306 -44 
Q 1000 -44 831 53 
Q 663 150 594 308 
Q 525 466 525 972 
L 525 2881 
L 113 2881 
L 113 3319 
L 525 3319 
L 525 4141 
L 1084 4478 
L 1084 3319 
L 1650 3319 
L 1650 2881 
L 1084 2881 
L 1084 941 
Q 1084 700 1114 631 
Q 1144 563 1211 522 
Q 1278 481 1403 481 
Q 1497 481 1650 503 
z
" transform="scale(0.015625)"/>
       <path id="ArialMT-20" transform="scale(0.015625)"/>
       <path id="ArialMT-72" d="M 416 0 
L 416 3319 
L 922 3319 
L 922 2816 
Q 1116 3169 1280 3281 
Q 1444 3394 1641 3394 
Q 1925 3394 2219 3213 
L 2025 2691 
Q 1819 2813 1613 2813 
Q 1428 2813 1281 2702 
Q 1134 2591 1072 2394 
Q 978 2094 978 1738 
L 978 0 
L 416 0 
z
" transform="scale(0.015625)"/>
       <path id="ArialMT-61" d="M 2588 409 
Q 2275 144 1986 34 
Q 1697 -75 1366 -75 
Q 819 -75 525 192 
Q 231 459 231 875 
Q 231 1119 342 1320 
Q 453 1522 633 1644 
Q 813 1766 1038 1828 
Q 1203 1872 1538 1913 
Q 2219 1994 2541 2106 
Q 2544 2222 2544 2253 
Q 2544 2597 2384 2738 
Q 2169 2928 1744 2928 
Q 1347 2928 1158 2789 
Q 969 2650 878 2297 
L 328 2372 
Q 403 2725 575 2942 
Q 747 3159 1072 3276 
Q 1397 3394 1825 3394 
Q 2250 3394 2515 3294 
Q 2781 3194 2906 3042 
Q 3031 2891 3081 2659 
Q 3109 2516 3109 2141 
L 3109 1391 
Q 3109 606 3145 398 
Q 3181 191 3288 0 
L 2700 0 
Q 2613 175 2588 409 
z
M 2541 1666 
Q 2234 1541 1622 1453 
Q 1275 1403 1131 1340 
Q 988 1278 909 1158 
Q 831 1038 831 891 
Q 831 666 1001 516 
Q 1172 366 1500 366 
Q 1825 366 2078 508 
Q 2331 650 2450 897 
Q 2541 1088 2541 1459 
L 2541 1666 
z
" transform="scale(0.015625)"/>
       <path id="ArialMT-65" d="M 2694 1069 
L 3275 997 
Q 3138 488 2766 206 
Q 2394 -75 1816 -75 
Q 1088 -75 661 373 
Q 234 822 234 1631 
Q 234 2469 665 2931 
Q 1097 3394 1784 3394 
Q 2450 3394 2872 2941 
Q 3294 2488 3294 1666 
Q 3294 1616 3291 1516 
L 816 1516 
Q 847 969 1125 678 
Q 1403 388 1819 388 
Q 2128 388 2347 550 
Q 2566 713 2694 1069 
z
M 847 1978 
L 2700 1978 
Q 2663 2397 2488 2606 
Q 2219 2931 1791 2931 
Q 1403 2931 1139 2672 
Q 875 2413 847 1978 
z
" transform="scale(0.015625)"/>
      </defs>
      <use xlink:href="#ArialMT-48"/>
      <use xlink:href="#ArialMT-69" x="72.216797"/>
      <use xlink:href="#ArialMT-74" x="94.433594"/>
      <use xlink:href="#ArialMT-20" x="122.216797"/>
      <use xlink:href="#ArialMT-72" x="150"/>
      <use xlink:href="#ArialMT-61" x="183.300781"/>
      <use xlink:href="#ArialMT-74" x="238.916016"/>
      <use xlink:href="#ArialMT-65" x="266.699219"/>
     </g>
    </g>
   </g>
   <g id="matplotlib.axis_2">
    <g id="ytick_1">
     <g id="line2d_4">
      <defs>
       <path id="md732bcb4f1" d="M 0 0 
L -6 0 
" style="stroke: #262626; stroke-width: 1.25"/>
      </defs>
      <g>
       <use xlink:href="#md732bcb4f1" x="43.908438" y="244.980938" style="fill: #262626; stroke: #262626; stroke-width: 1.25"/>
      </g>
     </g>
     <g id="text_5">
      <!-- 0 -->
      <g style="fill: #262626" transform="translate(28.291406 248.917734) scale(0.11 -0.11)">
       <use xlink:href="#ArialMT-30"/>
      </g>
     </g>
    </g>
    <g id="ytick_2">
     <g id="line2d_5">
      <g>
       <use xlink:href="#md732bcb4f1" x="43.908438" y="220.611707" style="fill: #262626; stroke: #262626; stroke-width: 1.25"/>
      </g>
     </g>
     <g id="text_6">
      <!-- 3 -->
      <g style="fill: #262626" transform="translate(28.291406 224.548504) scale(0.11 -0.11)">
       <defs>
        <path id="ArialMT-33" d="M 269 1209 
L 831 1284 
Q 928 806 1161 595 
Q 1394 384 1728 384 
Q 2125 384 2398 659 
Q 2672 934 2672 1341 
Q 2672 1728 2419 1979 
Q 2166 2231 1775 2231 
Q 1616 2231 1378 2169 
L 1441 2663 
Q 1497 2656 1531 2656 
Q 1891 2656 2178 2843 
Q 2466 3031 2466 3422 
Q 2466 3731 2256 3934 
Q 2047 4138 1716 4138 
Q 1388 4138 1169 3931 
Q 950 3725 888 3313 
L 325 3413 
Q 428 3978 793 4289 
Q 1159 4600 1703 4600 
Q 2078 4600 2393 4439 
Q 2709 4278 2876 4000 
Q 3044 3722 3044 3409 
Q 3044 3113 2884 2869 
Q 2725 2625 2413 2481 
Q 2819 2388 3044 2092 
Q 3269 1797 3269 1353 
Q 3269 753 2831 336 
Q 2394 -81 1725 -81 
Q 1122 -81 723 278 
Q 325 638 269 1209 
z
" transform="scale(0.015625)"/>
       </defs>
       <use xlink:href="#ArialMT-33"/>
      </g>
     </g>
    </g>
    <g id="ytick_3">
     <g id="line2d_6">
      <g>
       <use xlink:href="#md732bcb4f1" x="43.908438" y="196.242476" style="fill: #262626; stroke: #262626; stroke-width: 1.25"/>
      </g>
     </g>
     <g id="text_7">
      <!-- 6 -->
      <g style="fill: #262626" transform="translate(28.291406 200.179273) scale(0.11 -0.11)">
       <use xlink:href="#ArialMT-36"/>
      </g>
     </g>
    </g>
    <g id="ytick_4">
     <g id="line2d_7">
      <g>
       <use xlink:href="#md732bcb4f1" x="43.908438" y="171.873245" style="fill: #262626; stroke: #262626; stroke-width: 1.25"/>
      </g>
     </g>
     <g id="text_8">
      <!-- 9 -->
      <g style="fill: #262626" transform="translate(28.291406 175.810042) scale(0.11 -0.11)">
       <defs>
        <path id="ArialMT-39" d="M 350 1059 
L 891 1109 
Q 959 728 1153 556 
Q 1347 384 1650 384 
Q 1909 384 2104 503 
Q 2300 622 2425 820 
Q 2550 1019 2634 1356 
Q 2719 1694 2719 2044 
Q 2719 2081 2716 2156 
Q 2547 1888 2255 1720 
Q 1963 1553 1622 1553 
Q 1053 1553 659 1965 
Q 266 2378 266 3053 
Q 266 3750 677 4175 
Q 1088 4600 1706 4600 
Q 2153 4600 2523 4359 
Q 2894 4119 3086 3673 
Q 3278 3228 3278 2384 
Q 3278 1506 3087 986 
Q 2897 466 2520 194 
Q 2144 -78 1638 -78 
Q 1100 -78 759 220 
Q 419 519 350 1059 
z
M 2653 3081 
Q 2653 3566 2395 3850 
Q 2138 4134 1775 4134 
Q 1400 4134 1122 3828 
Q 844 3522 844 3034 
Q 844 2597 1108 2323 
Q 1372 2050 1759 2050 
Q 2150 2050 2401 2323 
Q 2653 2597 2653 3081 
z
" transform="scale(0.015625)"/>
       </defs>
       <use xlink:href="#ArialMT-39"/>
      </g>
     </g>
    </g>
    <g id="ytick_5">
     <g id="line2d_8">
      <g>
       <use xlink:href="#md732bcb4f1" x="43.908438" y="147.504014" style="fill: #262626; stroke: #262626; stroke-width: 1.25"/>
      </g>
     </g>
     <g id="text_9">
      <!-- 12 -->
      <g style="fill: #262626" transform="translate(22.174375 151.440811) scale(0.11 -0.11)">
       <defs>
        <path id="ArialMT-32" d="M 3222 541 
L 3222 0 
L 194 0 
Q 188 203 259 391 
Q 375 700 629 1000 
Q 884 1300 1366 1694 
Q 2113 2306 2375 2664 
Q 2638 3022 2638 3341 
Q 2638 3675 2398 3904 
Q 2159 4134 1775 4134 
Q 1369 4134 1125 3890 
Q 881 3647 878 3216 
L 300 3275 
Q 359 3922 746 4261 
Q 1134 4600 1788 4600 
Q 2447 4600 2831 4234 
Q 3216 3869 3216 3328 
Q 3216 3053 3103 2787 
Q 2991 2522 2730 2228 
Q 2469 1934 1863 1422 
Q 1356 997 1212 845 
Q 1069 694 975 541 
L 3222 541 
z
" transform="scale(0.015625)"/>
       </defs>
       <use xlink:href="#ArialMT-31"/>
       <use xlink:href="#ArialMT-32" x="55.615234"/>
      </g>
     </g>
    </g>
    <g id="ytick_6">
     <g id="line2d_9">
      <g>
       <use xlink:href="#md732bcb4f1" x="43.908438" y="123.134784" style="fill: #262626; stroke: #262626; stroke-width: 1.25"/>
      </g>
     </g>
     <g id="text_10">
      <!-- 15 -->
      <g style="fill: #262626" transform="translate(22.174375 127.071581) scale(0.11 -0.11)">
       <defs>
        <path id="ArialMT-35" d="M 266 1200 
L 856 1250 
Q 922 819 1161 601 
Q 1400 384 1738 384 
Q 2144 384 2425 690 
Q 2706 997 2706 1503 
Q 2706 1984 2436 2262 
Q 2166 2541 1728 2541 
Q 1456 2541 1237 2417 
Q 1019 2294 894 2097 
L 366 2166 
L 809 4519 
L 3088 4519 
L 3088 3981 
L 1259 3981 
L 1013 2750 
Q 1425 3038 1878 3038 
Q 2478 3038 2890 2622 
Q 3303 2206 3303 1553 
Q 3303 931 2941 478 
Q 2500 -78 1738 -78 
Q 1113 -78 717 272 
Q 322 622 266 1200 
z
" transform="scale(0.015625)"/>
       </defs>
       <use xlink:href="#ArialMT-31"/>
       <use xlink:href="#ArialMT-35" x="55.615234"/>
      </g>
     </g>
    </g>
    <g id="ytick_7">
     <g id="line2d_10">
      <g>
       <use xlink:href="#md732bcb4f1" x="43.908438" y="98.765553" style="fill: #262626; stroke: #262626; stroke-width: 1.25"/>
      </g>
     </g>
     <g id="text_11">
      <!-- 18 -->
      <g style="fill: #262626" transform="translate(22.174375 102.70235) scale(0.11 -0.11)">
       <use xlink:href="#ArialMT-31"/>
       <use xlink:href="#ArialMT-38" x="55.615234"/>
      </g>
     </g>
    </g>
    <g id="ytick_8">
     <g id="line2d_11">
      <g>
       <use xlink:href="#md732bcb4f1" x="43.908438" y="74.396322" style="fill: #262626; stroke: #262626; stroke-width: 1.25"/>
      </g>
     </g>
     <g id="text_12">
      <!-- 21 -->
      <g style="fill: #262626" transform="translate(22.174375 78.333119) scale(0.11 -0.11)">
       <use xlink:href="#ArialMT-32"/>
       <use xlink:href="#ArialMT-31" x="55.615234"/>
      </g>
     </g>
    </g>
    <g id="ytick_9">
     <g id="line2d_12">
      <g>
       <use xlink:href="#md732bcb4f1" x="43.908438" y="50.027091" style="fill: #262626; stroke: #262626; stroke-width: 1.25"/>
      </g>
     </g>
     <g id="text_13">
      <!-- 24 -->
      <g style="fill: #262626" transform="translate(22.174375 53.963888) scale(0.11 -0.11)">
       <defs>
        <path id="ArialMT-34" d="M 2069 0 
L 2069 1097 
L 81 1097 
L 81 1613 
L 2172 4581 
L 2631 4581 
L 2631 1613 
L 3250 1613 
L 3250 1097 
L 2631 1097 
L 2631 0 
L 2069 0 
z
M 2069 1613 
L 2069 3678 
L 634 1613 
L 2069 1613 
z
" transform="scale(0.015625)"/>
       </defs>
       <use xlink:href="#ArialMT-32"/>
       <use xlink:href="#ArialMT-34" x="55.615234"/>
      </g>
     </g>
    </g>
    <g id="ytick_10">
     <g id="line2d_13">
      <g>
       <use xlink:href="#md732bcb4f1" x="43.908438" y="25.657861" style="fill: #262626; stroke: #262626; stroke-width: 1.25"/>
      </g>
     </g>
     <g id="text_14">
      <!-- 27 -->
      <g style="fill: #262626" transform="translate(22.174375 29.594657) scale(0.11 -0.11)">
       <defs>
        <path id="ArialMT-37" d="M 303 3981 
L 303 4522 
L 3269 4522 
L 3269 4084 
Q 2831 3619 2401 2847 
Q 1972 2075 1738 1259 
Q 1569 684 1522 0 
L 944 0 
Q 953 541 1156 1306 
Q 1359 2072 1739 2783 
Q 2119 3494 2547 3981 
L 303 3981 
z
" transform="scale(0.015625)"/>
       </defs>
       <use xlink:href="#ArialMT-32"/>
       <use xlink:href="#ArialMT-37" x="55.615234"/>
      </g>
     </g>
    </g>
    <g id="text_15">
     <!-- Count -->
     <g style="fill: #262626" transform="translate(15.789375 150.110625) rotate(-90) scale(0.12 -0.12)">
      <defs>
       <path id="ArialMT-43" d="M 3763 1606 
L 4369 1453 
Q 4178 706 3683 314 
Q 3188 -78 2472 -78 
Q 1731 -78 1267 223 
Q 803 525 561 1097 
Q 319 1669 319 2325 
Q 319 3041 592 3573 
Q 866 4106 1370 4382 
Q 1875 4659 2481 4659 
Q 3169 4659 3637 4309 
Q 4106 3959 4291 3325 
L 3694 3184 
Q 3534 3684 3231 3912 
Q 2928 4141 2469 4141 
Q 1941 4141 1586 3887 
Q 1231 3634 1087 3207 
Q 944 2781 944 2328 
Q 944 1744 1114 1308 
Q 1284 872 1643 656 
Q 2003 441 2422 441 
Q 2931 441 3284 734 
Q 3638 1028 3763 1606 
z
" transform="scale(0.015625)"/>
       <path id="ArialMT-6f" d="M 213 1659 
Q 213 2581 725 3025 
Q 1153 3394 1769 3394 
Q 2453 3394 2887 2945 
Q 3322 2497 3322 1706 
Q 3322 1066 3130 698 
Q 2938 331 2570 128 
Q 2203 -75 1769 -75 
Q 1072 -75 642 372 
Q 213 819 213 1659 
z
M 791 1659 
Q 791 1022 1069 705 
Q 1347 388 1769 388 
Q 2188 388 2466 706 
Q 2744 1025 2744 1678 
Q 2744 2294 2464 2611 
Q 2184 2928 1769 2928 
Q 1347 2928 1069 2612 
Q 791 2297 791 1659 
z
" transform="scale(0.015625)"/>
       <path id="ArialMT-75" d="M 2597 0 
L 2597 488 
Q 2209 -75 1544 -75 
Q 1250 -75 995 37 
Q 741 150 617 320 
Q 494 491 444 738 
Q 409 903 409 1263 
L 409 3319 
L 972 3319 
L 972 1478 
Q 972 1038 1006 884 
Q 1059 663 1231 536 
Q 1403 409 1656 409 
Q 1909 409 2131 539 
Q 2353 669 2445 892 
Q 2538 1116 2538 1541 
L 2538 3319 
L 3100 3319 
L 3100 0 
L 2597 0 
z
" transform="scale(0.015625)"/>
       <path id="ArialMT-6e" d="M 422 0 
L 422 3319 
L 928 3319 
L 928 2847 
Q 1294 3394 1984 3394 
Q 2284 3394 2536 3286 
Q 2788 3178 2913 3003 
Q 3038 2828 3088 2588 
Q 3119 2431 3119 2041 
L 3119 0 
L 2556 0 
L 2556 2019 
Q 2556 2363 2490 2533 
Q 2425 2703 2258 2804 
Q 2091 2906 1866 2906 
Q 1506 2906 1245 2678 
Q 984 2450 984 1813 
L 984 0 
L 422 0 
z
" transform="scale(0.015625)"/>
      </defs>
      <use xlink:href="#ArialMT-43"/>
      <use xlink:href="#ArialMT-6f" x="72.216797"/>
      <use xlink:href="#ArialMT-75" x="127.832031"/>
      <use xlink:href="#ArialMT-6e" x="183.447266"/>
      <use xlink:href="#ArialMT-74" x="239.0625"/>
     </g>
    </g>
   </g>
   <g id="patch_3">
    <path d="M 52.860309 244.980938 
L 70.764052 244.980938 
L 70.764052 236.857861 
L 52.860309 236.857861 
z
" clip-path="url(#p2fb56fc125)" style="fill: #0000ff; fill-opacity: 0.5; stroke: #ffffff; stroke-linejoin: miter"/>
   </g>
   <g id="patch_4">
    <path d="M 70.764052 244.980938 
L 88.667796 244.980938 
L 88.667796 244.980938 
L 70.764052 244.980938 
z
" clip-path="url(#p2fb56fc125)" style="fill: #0000ff; fill-opacity: 0.5; stroke: #ffffff; stroke-linejoin: miter"/>
   </g>
   <g id="patch_5">
    <path d="M 88.667796 244.980938 
L 106.571539 244.980938 
L 106.571539 236.857861 
L 88.667796 236.857861 
z
" clip-path="url(#p2fb56fc125)" style="fill: #0000ff; fill-opacity: 0.5; stroke: #ffffff; stroke-linejoin: miter"/>
   </g>
   <g id="patch_6">
    <path d="M 106.571539 244.980938 
L 124.475282 244.980938 
L 124.475282 244.980938 
L 106.571539 244.980938 
z
" clip-path="url(#p2fb56fc125)" style="fill: #0000ff; fill-opacity: 0.5; stroke: #ffffff; stroke-linejoin: miter"/>
   </g>
   <g id="patch_7">
    <path d="M 124.475282 244.980938 
L 142.379026 244.980938 
L 142.379026 244.980938 
L 124.475282 244.980938 
z
" clip-path="url(#p2fb56fc125)" style="fill: #0000ff; fill-opacity: 0.5; stroke: #ffffff; stroke-linejoin: miter"/>
   </g>
   <g id="patch_8">
    <path d="M 142.379026 244.980938 
L 160.282769 244.980938 
L 160.282769 188.119399 
L 142.379026 188.119399 
z
" clip-path="url(#p2fb56fc125)" style="fill: #0000ff; fill-opacity: 0.5; stroke: #ffffff; stroke-linejoin: miter"/>
   </g>
   <g id="patch_9">
    <path d="M 160.282769 244.980938 
L 178.186512 244.980938 
L 178.186512 244.980938 
L 160.282769 244.980938 
z
" clip-path="url(#p2fb56fc125)" style="fill: #0000ff; fill-opacity: 0.5; stroke: #ffffff; stroke-linejoin: miter"/>
   </g>
   <g id="patch_10">
    <path d="M 178.186512 244.980938 
L 196.090256 244.980938 
L 196.090256 123.134784 
L 178.186512 123.134784 
z
" clip-path="url(#p2fb56fc125)" style="fill: #0000ff; fill-opacity: 0.5; stroke: #ffffff; stroke-linejoin: miter"/>
   </g>
   <g id="patch_11">
    <path d="M 196.090256 244.980938 
L 213.993999 244.980938 
L 213.993999 244.980938 
L 196.090256 244.980938 
z
" clip-path="url(#p2fb56fc125)" style="fill: #0000ff; fill-opacity: 0.5; stroke: #ffffff; stroke-linejoin: miter"/>
   </g>
   <g id="patch_12">
    <path d="M 213.993999 244.980938 
L 231.897742 244.980938 
L 231.897742 33.780937 
L 213.993999 33.780937 
z
" clip-path="url(#p2fb56fc125)" style="fill: #0000ff; fill-opacity: 0.5; stroke: #ffffff; stroke-linejoin: miter"/>
   </g>
   <g id="line2d_14">
    <path d="M 52.860309 241.732878 
L 59.158108 241.693273 
L 79.850877 241.803564 
L 86.148676 241.513033 
L 92.446475 241.017377 
L 97.844589 240.377537 
L 102.343017 239.603498 
L 105.941759 238.753632 
L 109.540502 237.640133 
L 113.139244 236.223852 
L 116.737986 234.495886 
L 120.336729 232.489734 
L 125.734842 229.146366 
L 132.032641 225.264232 
L 135.631384 223.321819 
L 138.330441 222.071021 
L 141.029497 221.009206 
L 144.62824 219.851832 
L 155.424467 216.685822 
L 158.123524 215.507655 
L 160.82258 214.026194 
L 163.521637 212.213524 
L 166.220694 210.08173 
L 168.919751 207.684551 
L 174.317864 202.486471 
L 177.916607 199.124907 
L 180.615663 196.868827 
L 183.31472 194.944 
L 186.013777 193.396422 
L 188.712834 192.217077 
L 191.411891 191.339159 
L 200.408747 188.811899 
L 202.208118 188.00603 
L 204.007489 186.995423 
L 205.80686 185.752597 
L 207.606231 184.263879 
L 209.405602 182.531283 
L 212.104659 179.520773 
L 214.803716 176.141295 
L 220.20183 169.17346 
L 222.001201 167.095707 
L 223.800572 165.290351 
L 225.599943 163.843788 
L 227.399314 162.834165 
L 228.299 162.514441 
L 229.198686 162.327645 
L 230.098371 162.279658 
L 230.998057 162.375265 
L 231.897742 162.618095 
L 231.897742 162.618095 
" clip-path="url(#p2fb56fc125)" style="fill: none; stroke: #0000ff; stroke-width: 1.5; stroke-linecap: round"/>
   </g>
   <g id="patch_13">
    <path d="M 43.908438 244.980938 
L 43.908438 23.220937 
" style="fill: none; stroke: #000000; stroke-width: 1.5; stroke-linejoin: miter; stroke-linecap: square"/>
   </g>
   <g id="patch_14">
    <path d="M 43.908437 244.980938 
L 240.849614 244.980938 
" style="fill: none; stroke: #000000; stroke-width: 1.5; stroke-linejoin: miter; stroke-linecap: square"/>
   </g>
   <g id="text_16">
    <!-- 1-back -->
    <g style="fill: #262626" transform="translate(120.202151 17.220937) scale(0.14 -0.14)">
     <defs>
      <path id="Arial-BoldMT-31" d="M 2519 0 
L 1641 0 
L 1641 3309 
Q 1159 2859 506 2644 
L 506 3441 
Q 850 3553 1253 3867 
Q 1656 4181 1806 4600 
L 2519 4600 
L 2519 0 
z
" transform="scale(0.015625)"/>
      <path id="Arial-BoldMT-2d" d="M 359 1222 
L 359 2100 
L 2084 2100 
L 2084 1222 
L 359 1222 
z
" transform="scale(0.015625)"/>
      <path id="Arial-BoldMT-62" d="M 422 0 
L 422 4581 
L 1300 4581 
L 1300 2931 
Q 1706 3394 2263 3394 
Q 2869 3394 3266 2955 
Q 3663 2516 3663 1694 
Q 3663 844 3258 384 
Q 2853 -75 2275 -75 
Q 1991 -75 1714 67 
Q 1438 209 1238 488 
L 1238 0 
L 422 0 
z
M 1294 1731 
Q 1294 1216 1456 969 
Q 1684 619 2063 619 
Q 2353 619 2558 867 
Q 2763 1116 2763 1650 
Q 2763 2219 2556 2470 
Q 2350 2722 2028 2722 
Q 1713 2722 1503 2476 
Q 1294 2231 1294 1731 
z
" transform="scale(0.015625)"/>
      <path id="Arial-BoldMT-61" d="M 1116 2306 
L 319 2450 
Q 453 2931 781 3162 
Q 1109 3394 1756 3394 
Q 2344 3394 2631 3255 
Q 2919 3116 3036 2902 
Q 3153 2688 3153 2116 
L 3144 1091 
Q 3144 653 3186 445 
Q 3228 238 3344 0 
L 2475 0 
Q 2441 88 2391 259 
Q 2369 338 2359 363 
Q 2134 144 1878 34 
Q 1622 -75 1331 -75 
Q 819 -75 523 203 
Q 228 481 228 906 
Q 228 1188 362 1408 
Q 497 1628 739 1745 
Q 981 1863 1438 1950 
Q 2053 2066 2291 2166 
L 2291 2253 
Q 2291 2506 2166 2614 
Q 2041 2722 1694 2722 
Q 1459 2722 1328 2630 
Q 1197 2538 1116 2306 
z
M 2291 1594 
Q 2122 1538 1756 1459 
Q 1391 1381 1278 1306 
Q 1106 1184 1106 997 
Q 1106 813 1243 678 
Q 1381 544 1594 544 
Q 1831 544 2047 700 
Q 2206 819 2256 991 
Q 2291 1103 2291 1419 
L 2291 1594 
z
" transform="scale(0.015625)"/>
      <path id="Arial-BoldMT-63" d="M 3353 2338 
L 2488 2181 
Q 2444 2441 2289 2572 
Q 2134 2703 1888 2703 
Q 1559 2703 1364 2476 
Q 1169 2250 1169 1719 
Q 1169 1128 1367 884 
Q 1566 641 1900 641 
Q 2150 641 2309 783 
Q 2469 925 2534 1272 
L 3397 1125 
Q 3263 531 2881 228 
Q 2500 -75 1859 -75 
Q 1131 -75 698 384 
Q 266 844 266 1656 
Q 266 2478 700 2936 
Q 1134 3394 1875 3394 
Q 2481 3394 2839 3133 
Q 3197 2872 3353 2338 
z
" transform="scale(0.015625)"/>
      <path id="Arial-BoldMT-6b" d="M 428 0 
L 428 4581 
L 1306 4581 
L 1306 2150 
L 2334 3319 
L 3416 3319 
L 2281 2106 
L 3497 0 
L 2550 0 
L 1716 1491 
L 1306 1063 
L 1306 0 
L 428 0 
z
" transform="scale(0.015625)"/>
     </defs>
     <use xlink:href="#Arial-BoldMT-31"/>
     <use xlink:href="#Arial-BoldMT-2d" x="55.615234"/>
     <use xlink:href="#Arial-BoldMT-62" x="88.916016"/>
     <use xlink:href="#Arial-BoldMT-61" x="150"/>
     <use xlink:href="#Arial-BoldMT-63" x="205.615234"/>
     <use xlink:href="#Arial-BoldMT-6b" x="261.230469"/>
    </g>
   </g>
  </g>
  <g id="axes_2">
   <g id="patch_15">
    <path d="M 280.237849 244.980938 
L 477.179026 244.980938 
L 477.179026 23.220937 
L 280.237849 23.220937 
z
" style="fill: #ffffff"/>
   </g>
   <g id="matplotlib.axis_3">
    <g id="xtick_4">
     <g id="line2d_15">
      <g>
       <use xlink:href="#m98013eadce" x="289.189721" y="244.980938" style="fill: #262626; stroke: #262626; stroke-width: 1.25"/>
      </g>
     </g>
     <g id="text_17">
      <!-- 0 -->
      <g style="fill: #262626" transform="translate(286.131205 262.354531) scale(0.11 -0.11)">
       <use xlink:href="#ArialMT-30"/>
      </g>
     </g>
    </g>
    <g id="xtick_5">
     <g id="line2d_16">
      <g>
       <use xlink:href="#m98013eadce" x="330.112563" y="244.980938" style="fill: #262626; stroke: #262626; stroke-width: 1.25"/>
      </g>
     </g>
     <g id="text_18">
      <!-- 20 -->
      <g style="fill: #262626" transform="translate(323.995532 262.354531) scale(0.11 -0.11)">
       <use xlink:href="#ArialMT-32"/>
       <use xlink:href="#ArialMT-30" x="55.615234"/>
      </g>
     </g>
    </g>
    <g id="xtick_6">
     <g id="line2d_17">
      <g>
       <use xlink:href="#m98013eadce" x="371.035405" y="244.980938" style="fill: #262626; stroke: #262626; stroke-width: 1.25"/>
      </g>
     </g>
     <g id="text_19">
      <!-- 40 -->
      <g style="fill: #262626" transform="translate(364.918373 262.354531) scale(0.11 -0.11)">
       <use xlink:href="#ArialMT-34"/>
       <use xlink:href="#ArialMT-30" x="55.615234"/>
      </g>
     </g>
    </g>
    <g id="xtick_7">
     <g id="line2d_18">
      <g>
       <use xlink:href="#m98013eadce" x="411.958247" y="244.980938" style="fill: #262626; stroke: #262626; stroke-width: 1.25"/>
      </g>
     </g>
     <g id="text_20">
      <!-- 60 -->
      <g style="fill: #262626" transform="translate(405.841215 262.354531) scale(0.11 -0.11)">
       <use xlink:href="#ArialMT-36"/>
       <use xlink:href="#ArialMT-30" x="55.615234"/>
      </g>
     </g>
    </g>
    <g id="xtick_8">
     <g id="line2d_19">
      <g>
       <use xlink:href="#m98013eadce" x="452.881088" y="244.980938" style="fill: #262626; stroke: #262626; stroke-width: 1.25"/>
      </g>
     </g>
     <g id="text_21">
      <!-- 80 -->
      <g style="fill: #262626" transform="translate(446.764057 262.354531) scale(0.11 -0.11)">
       <use xlink:href="#ArialMT-38"/>
       <use xlink:href="#ArialMT-30" x="55.615234"/>
      </g>
     </g>
    </g>
    <g id="text_22">
     <!-- Hit rate -->
     <g style="fill: #262626" transform="translate(359.370625 277.130156) scale(0.12 -0.12)">
      <use xlink:href="#ArialMT-48"/>
      <use xlink:href="#ArialMT-69" x="72.216797"/>
      <use xlink:href="#ArialMT-74" x="94.433594"/>
      <use xlink:href="#ArialMT-20" x="122.216797"/>
      <use xlink:href="#ArialMT-72" x="150"/>
      <use xlink:href="#ArialMT-61" x="183.300781"/>
      <use xlink:href="#ArialMT-74" x="238.916016"/>
      <use xlink:href="#ArialMT-65" x="266.699219"/>
     </g>
    </g>
   </g>
   <g id="matplotlib.axis_4">
    <g id="ytick_11">
     <g id="line2d_20">
      <g>
       <use xlink:href="#md732bcb4f1" x="280.237849" y="244.980938" style="fill: #262626; stroke: #262626; stroke-width: 1.25"/>
      </g>
     </g>
     <g id="text_23">
      <!-- 0 -->
      <g style="fill: #262626" transform="translate(264.620818 248.917734) scale(0.11 -0.11)">
       <use xlink:href="#ArialMT-30"/>
      </g>
     </g>
    </g>
    <g id="ytick_12">
     <g id="line2d_21">
      <g>
       <use xlink:href="#md732bcb4f1" x="280.237849" y="222.749359" style="fill: #262626; stroke: #262626; stroke-width: 1.25"/>
      </g>
     </g>
     <g id="text_24">
      <!-- 2 -->
      <g style="fill: #262626" transform="translate(264.620818 226.686155) scale(0.11 -0.11)">
       <use xlink:href="#ArialMT-32"/>
      </g>
     </g>
    </g>
    <g id="ytick_13">
     <g id="line2d_22">
      <g>
       <use xlink:href="#md732bcb4f1" x="280.237849" y="200.51778" style="fill: #262626; stroke: #262626; stroke-width: 1.25"/>
      </g>
     </g>
     <g id="text_25">
      <!-- 4 -->
      <g style="fill: #262626" transform="translate(264.620818 204.454576) scale(0.11 -0.11)">
       <use xlink:href="#ArialMT-34"/>
      </g>
     </g>
    </g>
    <g id="ytick_14">
     <g id="line2d_23">
      <g>
       <use xlink:href="#md732bcb4f1" x="280.237849" y="178.286201" style="fill: #262626; stroke: #262626; stroke-width: 1.25"/>
      </g>
     </g>
     <g id="text_26">
      <!-- 6 -->
      <g style="fill: #262626" transform="translate(264.620818 182.222998) scale(0.11 -0.11)">
       <use xlink:href="#ArialMT-36"/>
      </g>
     </g>
    </g>
    <g id="ytick_15">
     <g id="line2d_24">
      <g>
       <use xlink:href="#md732bcb4f1" x="280.237849" y="156.054622" style="fill: #262626; stroke: #262626; stroke-width: 1.25"/>
      </g>
     </g>
     <g id="text_27">
      <!-- 8 -->
      <g style="fill: #262626" transform="translate(264.620818 159.991419) scale(0.11 -0.11)">
       <use xlink:href="#ArialMT-38"/>
      </g>
     </g>
    </g>
    <g id="ytick_16">
     <g id="line2d_25">
      <g>
       <use xlink:href="#md732bcb4f1" x="280.237849" y="133.823043" style="fill: #262626; stroke: #262626; stroke-width: 1.25"/>
      </g>
     </g>
     <g id="text_28">
      <!-- 10 -->
      <g style="fill: #262626" transform="translate(258.503787 137.75984) scale(0.11 -0.11)">
       <use xlink:href="#ArialMT-31"/>
       <use xlink:href="#ArialMT-30" x="55.615234"/>
      </g>
     </g>
    </g>
    <g id="ytick_17">
     <g id="line2d_26">
      <g>
       <use xlink:href="#md732bcb4f1" x="280.237849" y="111.591464" style="fill: #262626; stroke: #262626; stroke-width: 1.25"/>
      </g>
     </g>
     <g id="text_29">
      <!-- 12 -->
      <g style="fill: #262626" transform="translate(258.503787 115.528261) scale(0.11 -0.11)">
       <use xlink:href="#ArialMT-31"/>
       <use xlink:href="#ArialMT-32" x="55.615234"/>
      </g>
     </g>
    </g>
    <g id="ytick_18">
     <g id="line2d_27">
      <g>
       <use xlink:href="#md732bcb4f1" x="280.237849" y="89.359885" style="fill: #262626; stroke: #262626; stroke-width: 1.25"/>
      </g>
     </g>
     <g id="text_30">
      <!-- 14 -->
      <g style="fill: #262626" transform="translate(258.503787 93.296682) scale(0.11 -0.11)">
       <use xlink:href="#ArialMT-31"/>
       <use xlink:href="#ArialMT-34" x="55.615234"/>
      </g>
     </g>
    </g>
    <g id="ytick_19">
     <g id="line2d_28">
      <g>
       <use xlink:href="#md732bcb4f1" x="280.237849" y="67.128306" style="fill: #262626; stroke: #262626; stroke-width: 1.25"/>
      </g>
     </g>
     <g id="text_31">
      <!-- 16 -->
      <g style="fill: #262626" transform="translate(258.503787 71.065103) scale(0.11 -0.11)">
       <use xlink:href="#ArialMT-31"/>
       <use xlink:href="#ArialMT-36" x="55.615234"/>
      </g>
     </g>
    </g>
    <g id="ytick_20">
     <g id="line2d_29">
      <g>
       <use xlink:href="#md732bcb4f1" x="280.237849" y="44.896727" style="fill: #262626; stroke: #262626; stroke-width: 1.25"/>
      </g>
     </g>
     <g id="text_32">
      <!-- 18 -->
      <g style="fill: #262626" transform="translate(258.503787 48.833524) scale(0.11 -0.11)">
       <use xlink:href="#ArialMT-31"/>
       <use xlink:href="#ArialMT-38" x="55.615234"/>
      </g>
     </g>
    </g>
    <g id="text_33">
     <!-- Count -->
     <g style="fill: #262626" transform="translate(252.118787 150.110625) rotate(-90) scale(0.12 -0.12)">
      <use xlink:href="#ArialMT-43"/>
      <use xlink:href="#ArialMT-6f" x="72.216797"/>
      <use xlink:href="#ArialMT-75" x="127.832031"/>
      <use xlink:href="#ArialMT-6e" x="183.447266"/>
      <use xlink:href="#ArialMT-74" x="239.0625"/>
     </g>
    </g>
   </g>
   <g id="patch_16">
    <path d="M 289.189721 244.980938 
L 307.093464 244.980938 
L 307.093464 200.51778 
L 289.189721 200.51778 
z
" clip-path="url(#p4bbe3f1492)" style="fill: #0000ff; fill-opacity: 0.5; stroke: #ffffff; stroke-linejoin: miter"/>
   </g>
   <g id="patch_17">
    <path d="M 307.093464 244.980938 
L 324.997208 244.980938 
L 324.997208 144.938832 
L 307.093464 144.938832 
z
" clip-path="url(#p4bbe3f1492)" style="fill: #0000ff; fill-opacity: 0.5; stroke: #ffffff; stroke-linejoin: miter"/>
   </g>
   <g id="patch_18">
    <path d="M 324.997208 244.980938 
L 342.900951 244.980938 
L 342.900951 33.780937 
L 324.997208 33.780937 
z
" clip-path="url(#p4bbe3f1492)" style="fill: #0000ff; fill-opacity: 0.5; stroke: #ffffff; stroke-linejoin: miter"/>
   </g>
   <g id="patch_19">
    <path d="M 342.900951 244.980938 
L 360.804694 244.980938 
L 360.804694 244.980938 
L 342.900951 244.980938 
z
" clip-path="url(#p4bbe3f1492)" style="fill: #0000ff; fill-opacity: 0.5; stroke: #ffffff; stroke-linejoin: miter"/>
   </g>
   <g id="patch_20">
    <path d="M 360.804694 244.980938 
L 378.708437 244.980938 
L 378.708437 122.707253 
L 360.804694 122.707253 
z
" clip-path="url(#p4bbe3f1492)" style="fill: #0000ff; fill-opacity: 0.5; stroke: #ffffff; stroke-linejoin: miter"/>
   </g>
   <g id="patch_21">
    <path d="M 378.708438 244.980938 
L 396.612181 244.980938 
L 396.612181 178.286201 
L 378.708438 178.286201 
z
" clip-path="url(#p4bbe3f1492)" style="fill: #0000ff; fill-opacity: 0.5; stroke: #ffffff; stroke-linejoin: miter"/>
   </g>
   <g id="patch_22">
    <path d="M 396.612181 244.980938 
L 414.515924 244.980938 
L 414.515924 244.980938 
L 396.612181 244.980938 
z
" clip-path="url(#p4bbe3f1492)" style="fill: #0000ff; fill-opacity: 0.5; stroke: #ffffff; stroke-linejoin: miter"/>
   </g>
   <g id="patch_23">
    <path d="M 414.515924 244.980938 
L 432.419667 244.980938 
L 432.419667 244.980938 
L 414.515924 244.980938 
z
" clip-path="url(#p4bbe3f1492)" style="fill: #0000ff; fill-opacity: 0.5; stroke: #ffffff; stroke-linejoin: miter"/>
   </g>
   <g id="patch_24">
    <path d="M 432.419667 244.980938 
L 450.323411 244.980938 
L 450.323411 244.980938 
L 432.419667 244.980938 
z
" clip-path="url(#p4bbe3f1492)" style="fill: #0000ff; fill-opacity: 0.5; stroke: #ffffff; stroke-linejoin: miter"/>
   </g>
   <g id="patch_25">
    <path d="M 450.323411 244.980938 
L 468.227154 244.980938 
L 468.227154 233.865148 
L 450.323411 233.865148 
z
" clip-path="url(#p4bbe3f1492)" style="fill: #0000ff; fill-opacity: 0.5; stroke: #ffffff; stroke-linejoin: miter"/>
   </g>
   <g id="line2d_30">
    <path d="M 289.189721 212.334465 
L 293.688149 206.122359 
L 297.286891 200.793172 
L 300.885634 195.047147 
L 304.484376 188.843297 
L 308.083118 182.182734 
L 311.681861 175.074055 
L 315.280603 167.506035 
L 318.879346 159.469196 
L 324.277459 146.75322 
L 328.775887 136.317255 
L 331.474944 130.690283 
L 333.274315 127.416356 
L 335.073686 124.643023 
L 336.873057 122.458994 
L 337.772743 121.610391 
L 338.672429 120.932938 
L 339.572114 120.43109 
L 340.4718 120.107415 
L 341.371485 119.962544 
L 342.271171 119.995168 
L 343.170857 120.202081 
L 344.070542 120.578273 
L 344.970228 121.117061 
L 345.869913 121.810262 
L 347.669285 123.62093 
L 349.468656 125.923189 
L 351.268027 128.621082 
L 353.967084 133.19986 
L 357.565826 139.857456 
L 369.261739 161.826822 
L 375.559538 173.112891 
L 380.957651 182.320776 
L 387.255451 192.534959 
L 395.352621 205.674581 
L 406.148848 223.555988 
L 408.847905 227.586577 
L 411.546962 231.224782 
L 414.246018 234.394982 
L 416.04539 236.227508 
L 417.844761 237.831481 
L 419.644132 239.211306 
L 421.443503 240.377036 
L 423.242874 241.34302 
L 425.042246 242.126453 
L 427.741302 243.000156 
L 430.440359 243.567667 
L 433.139416 243.885606 
L 435.838473 244.000666 
L 439.437215 243.899224 
L 443.035957 243.561536 
L 447.534385 242.880357 
L 453.832185 241.637944 
L 460.129984 240.444 
L 463.728726 239.976244 
L 467.327468 239.761176 
L 468.227154 239.752036 
L 468.227154 239.752036 
" clip-path="url(#p4bbe3f1492)" style="fill: none; stroke: #0000ff; stroke-width: 1.5; stroke-linecap: round"/>
   </g>
   <g id="patch_26">
    <path d="M 280.237849 244.980938 
L 280.237849 23.220937 
" style="fill: none; stroke: #000000; stroke-width: 1.5; stroke-linejoin: miter; stroke-linecap: square"/>
   </g>
   <g id="patch_27">
    <path d="M 280.237849 244.980938 
L 477.179026 244.980938 
" style="fill: none; stroke: #000000; stroke-width: 1.5; stroke-linejoin: miter; stroke-linecap: square"/>
   </g>
   <g id="text_34">
    <!-- 2-back -->
    <g style="fill: #262626" transform="translate(356.531563 17.220937) scale(0.14 -0.14)">
     <defs>
      <path id="Arial-BoldMT-32" d="M 3238 816 
L 3238 0 
L 159 0 
Q 209 463 459 877 
Q 709 1291 1447 1975 
Q 2041 2528 2175 2725 
Q 2356 2997 2356 3263 
Q 2356 3556 2198 3714 
Q 2041 3872 1763 3872 
Q 1488 3872 1325 3706 
Q 1163 3541 1138 3156 
L 263 3244 
Q 341 3969 753 4284 
Q 1166 4600 1784 4600 
Q 2463 4600 2850 4234 
Q 3238 3869 3238 3325 
Q 3238 3016 3127 2736 
Q 3016 2456 2775 2150 
Q 2616 1947 2200 1565 
Q 1784 1184 1673 1059 
Q 1563 934 1494 816 
L 3238 816 
z
" transform="scale(0.015625)"/>
     </defs>
     <use xlink:href="#Arial-BoldMT-32"/>
     <use xlink:href="#Arial-BoldMT-2d" x="55.615234"/>
     <use xlink:href="#Arial-BoldMT-62" x="88.916016"/>
     <use xlink:href="#Arial-BoldMT-61" x="150"/>
     <use xlink:href="#Arial-BoldMT-63" x="205.615234"/>
     <use xlink:href="#Arial-BoldMT-6b" x="261.230469"/>
    </g>
   </g>
  </g>
  <g id="axes_3">
   <g id="patch_28">
    <path d="M 516.567261 244.980938 
L 713.508438 244.980938 
L 713.508438 23.220937 
L 516.567261 23.220937 
z
" style="fill: #ffffff"/>
   </g>
   <g id="matplotlib.axis_5">
    <g id="xtick_9">
     <g id="line2d_31">
      <g>
       <use xlink:href="#m98013eadce" x="525.519133" y="244.980938" style="fill: #262626; stroke: #262626; stroke-width: 1.25"/>
      </g>
     </g>
     <g id="text_35">
      <!-- 0 -->
      <g style="fill: #262626" transform="translate(522.460617 262.354531) scale(0.11 -0.11)">
       <use xlink:href="#ArialMT-30"/>
      </g>
     </g>
    </g>
    <g id="xtick_10">
     <g id="line2d_32">
      <g>
       <use xlink:href="#m98013eadce" x="597.134106" y="244.980938" style="fill: #262626; stroke: #262626; stroke-width: 1.25"/>
      </g>
     </g>
     <g id="text_36">
      <!-- 20 -->
      <g style="fill: #262626" transform="translate(591.017075 262.354531) scale(0.11 -0.11)">
       <use xlink:href="#ArialMT-32"/>
       <use xlink:href="#ArialMT-30" x="55.615234"/>
      </g>
     </g>
    </g>
    <g id="xtick_11">
     <g id="line2d_33">
      <g>
       <use xlink:href="#m98013eadce" x="668.749079" y="244.980938" style="fill: #262626; stroke: #262626; stroke-width: 1.25"/>
      </g>
     </g>
     <g id="text_37">
      <!-- 40 -->
      <g style="fill: #262626" transform="translate(662.632048 262.354531) scale(0.11 -0.11)">
       <use xlink:href="#ArialMT-34"/>
       <use xlink:href="#ArialMT-30" x="55.615234"/>
      </g>
     </g>
    </g>
    <g id="text_38">
     <!-- Hit rate -->
     <g style="fill: #262626" transform="translate(595.700037 277.130156) scale(0.12 -0.12)">
      <use xlink:href="#ArialMT-48"/>
      <use xlink:href="#ArialMT-69" x="72.216797"/>
      <use xlink:href="#ArialMT-74" x="94.433594"/>
      <use xlink:href="#ArialMT-20" x="122.216797"/>
      <use xlink:href="#ArialMT-72" x="150"/>
      <use xlink:href="#ArialMT-61" x="183.300781"/>
      <use xlink:href="#ArialMT-74" x="238.916016"/>
      <use xlink:href="#ArialMT-65" x="266.699219"/>
     </g>
    </g>
   </g>
   <g id="matplotlib.axis_6">
    <g id="ytick_21">
     <g id="line2d_34">
      <g>
       <use xlink:href="#md732bcb4f1" x="516.567261" y="244.980938" style="fill: #262626; stroke: #262626; stroke-width: 1.25"/>
      </g>
     </g>
     <g id="text_39">
      <!-- 0 -->
      <g style="fill: #262626" transform="translate(500.95023 248.917734) scale(0.11 -0.11)">
       <use xlink:href="#ArialMT-30"/>
      </g>
     </g>
    </g>
    <g id="ytick_22">
     <g id="line2d_35">
      <g>
       <use xlink:href="#md732bcb4f1" x="516.567261" y="216.180938" style="fill: #262626; stroke: #262626; stroke-width: 1.25"/>
      </g>
     </g>
     <g id="text_40">
      <!-- 3 -->
      <g style="fill: #262626" transform="translate(500.95023 220.117734) scale(0.11 -0.11)">
       <use xlink:href="#ArialMT-33"/>
      </g>
     </g>
    </g>
    <g id="ytick_23">
     <g id="line2d_36">
      <g>
       <use xlink:href="#md732bcb4f1" x="516.567261" y="187.380938" style="fill: #262626; stroke: #262626; stroke-width: 1.25"/>
      </g>
     </g>
     <g id="text_41">
      <!-- 6 -->
      <g style="fill: #262626" transform="translate(500.95023 191.317734) scale(0.11 -0.11)">
       <use xlink:href="#ArialMT-36"/>
      </g>
     </g>
    </g>
    <g id="ytick_24">
     <g id="line2d_37">
      <g>
       <use xlink:href="#md732bcb4f1" x="516.567261" y="158.580938" style="fill: #262626; stroke: #262626; stroke-width: 1.25"/>
      </g>
     </g>
     <g id="text_42">
      <!-- 9 -->
      <g style="fill: #262626" transform="translate(500.95023 162.517734) scale(0.11 -0.11)">
       <use xlink:href="#ArialMT-39"/>
      </g>
     </g>
    </g>
    <g id="ytick_25">
     <g id="line2d_38">
      <g>
       <use xlink:href="#md732bcb4f1" x="516.567261" y="129.780938" style="fill: #262626; stroke: #262626; stroke-width: 1.25"/>
      </g>
     </g>
     <g id="text_43">
      <!-- 12 -->
      <g style="fill: #262626" transform="translate(494.833199 133.717734) scale(0.11 -0.11)">
       <use xlink:href="#ArialMT-31"/>
       <use xlink:href="#ArialMT-32" x="55.615234"/>
      </g>
     </g>
    </g>
    <g id="ytick_26">
     <g id="line2d_39">
      <g>
       <use xlink:href="#md732bcb4f1" x="516.567261" y="100.980938" style="fill: #262626; stroke: #262626; stroke-width: 1.25"/>
      </g>
     </g>
     <g id="text_44">
      <!-- 15 -->
      <g style="fill: #262626" transform="translate(494.833199 104.917734) scale(0.11 -0.11)">
       <use xlink:href="#ArialMT-31"/>
       <use xlink:href="#ArialMT-35" x="55.615234"/>
      </g>
     </g>
    </g>
    <g id="ytick_27">
     <g id="line2d_40">
      <g>
       <use xlink:href="#md732bcb4f1" x="516.567261" y="72.180938" style="fill: #262626; stroke: #262626; stroke-width: 1.25"/>
      </g>
     </g>
     <g id="text_45">
      <!-- 18 -->
      <g style="fill: #262626" transform="translate(494.833199 76.117734) scale(0.11 -0.11)">
       <use xlink:href="#ArialMT-31"/>
       <use xlink:href="#ArialMT-38" x="55.615234"/>
      </g>
     </g>
    </g>
    <g id="ytick_28">
     <g id="line2d_41">
      <g>
       <use xlink:href="#md732bcb4f1" x="516.567261" y="43.380938" style="fill: #262626; stroke: #262626; stroke-width: 1.25"/>
      </g>
     </g>
     <g id="text_46">
      <!-- 21 -->
      <g style="fill: #262626" transform="translate(494.833199 47.317734) scale(0.11 -0.11)">
       <use xlink:href="#ArialMT-32"/>
       <use xlink:href="#ArialMT-31" x="55.615234"/>
      </g>
     </g>
    </g>
    <g id="text_47">
     <!-- Count -->
     <g style="fill: #262626" transform="translate(488.448199 150.110625) rotate(-90) scale(0.12 -0.12)">
      <use xlink:href="#ArialMT-43"/>
      <use xlink:href="#ArialMT-6f" x="72.216797"/>
      <use xlink:href="#ArialMT-75" x="127.832031"/>
      <use xlink:href="#ArialMT-6e" x="183.447266"/>
      <use xlink:href="#ArialMT-74" x="239.0625"/>
     </g>
    </g>
   </g>
   <g id="patch_29">
    <path d="M 525.519133 244.980938 
L 543.422876 244.980938 
L 543.422876 206.580938 
L 525.519133 206.580938 
z
" clip-path="url(#p4407c71e8b)" style="fill: #0000ff; fill-opacity: 0.5; stroke: #ffffff; stroke-linejoin: miter"/>
   </g>
   <g id="patch_30">
    <path d="M 543.422876 244.980938 
L 561.326619 244.980938 
L 561.326619 244.980938 
L 543.422876 244.980938 
z
" clip-path="url(#p4407c71e8b)" style="fill: #0000ff; fill-opacity: 0.5; stroke: #ffffff; stroke-linejoin: miter"/>
   </g>
   <g id="patch_31">
    <path d="M 561.326619 244.980938 
L 579.230363 244.980938 
L 579.230363 91.380938 
L 561.326619 91.380938 
z
" clip-path="url(#p4407c71e8b)" style="fill: #0000ff; fill-opacity: 0.5; stroke: #ffffff; stroke-linejoin: miter"/>
   </g>
   <g id="patch_32">
    <path d="M 579.230363 244.980938 
L 597.134106 244.980938 
L 597.134106 244.980938 
L 579.230363 244.980938 
z
" clip-path="url(#p4407c71e8b)" style="fill: #0000ff; fill-opacity: 0.5; stroke: #ffffff; stroke-linejoin: miter"/>
   </g>
   <g id="patch_33">
    <path d="M 597.134106 244.980938 
L 615.037849 244.980938 
L 615.037849 244.980938 
L 597.134106 244.980938 
z
" clip-path="url(#p4407c71e8b)" style="fill: #0000ff; fill-opacity: 0.5; stroke: #ffffff; stroke-linejoin: miter"/>
   </g>
   <g id="patch_34">
    <path d="M 615.037849 244.980938 
L 632.941593 244.980938 
L 632.941593 33.780938 
L 615.037849 33.780938 
z
" clip-path="url(#p4407c71e8b)" style="fill: #0000ff; fill-opacity: 0.5; stroke: #ffffff; stroke-linejoin: miter"/>
   </g>
   <g id="patch_35">
    <path d="M 632.941593 244.980938 
L 650.845336 244.980938 
L 650.845336 244.980938 
L 632.941593 244.980938 
z
" clip-path="url(#p4407c71e8b)" style="fill: #0000ff; fill-opacity: 0.5; stroke: #ffffff; stroke-linejoin: miter"/>
   </g>
   <g id="patch_36">
    <path d="M 650.845336 244.980938 
L 668.749079 244.980938 
L 668.749079 187.380938 
L 650.845336 187.380938 
z
" clip-path="url(#p4407c71e8b)" style="fill: #0000ff; fill-opacity: 0.5; stroke: #ffffff; stroke-linejoin: miter"/>
   </g>
   <g id="patch_37">
    <path d="M 668.749079 244.980938 
L 686.652823 244.980938 
L 686.652823 244.980938 
L 668.749079 244.980938 
z
" clip-path="url(#p4407c71e8b)" style="fill: #0000ff; fill-opacity: 0.5; stroke: #ffffff; stroke-linejoin: miter"/>
   </g>
   <g id="patch_38">
    <path d="M 686.652823 244.980938 
L 704.556566 244.980938 
L 704.556566 225.780938 
L 686.652823 225.780938 
z
" clip-path="url(#p4407c71e8b)" style="fill: #0000ff; fill-opacity: 0.5; stroke: #ffffff; stroke-linejoin: miter"/>
   </g>
   <g id="line2d_42">
    <path d="M 525.519133 226.946538 
L 530.017561 224.838404 
L 532.716617 223.377729 
L 535.415674 221.666753 
L 538.114731 219.624814 
L 540.813788 217.188407 
L 543.512845 214.323254 
L 546.211901 211.034368 
L 548.910958 207.37233 
L 552.5097 202.083249 
L 558.8075 192.725691 
L 561.506556 189.134635 
L 563.305928 187.003948 
L 565.105299 185.128204 
L 566.90467 183.533338 
L 568.704041 182.232496 
L 570.503412 181.224804 
L 572.302784 180.494906 
L 574.102155 180.013344 
L 575.901526 179.737798 
L 578.600583 179.592264 
L 583.998696 179.475557 
L 585.798067 179.251957 
L 587.597439 178.843347 
L 589.39681 178.210573 
L 591.196181 177.329635 
L 592.995552 176.193678 
L 594.794923 174.814042 
L 597.49398 172.357069 
L 601.092723 168.642138 
L 604.691465 164.969226 
L 606.490836 163.361114 
L 608.290207 162.019001 
L 610.089578 161.020628 
L 611.88895 160.432723 
L 612.788635 160.309672 
L 613.688321 160.307548 
L 614.588006 160.430192 
L 615.487692 160.680258 
L 616.387378 161.059191 
L 617.287063 161.567209 
L 619.086434 162.965306 
L 620.885806 164.852397 
L 622.685177 167.18868 
L 624.484548 169.919002 
L 627.183605 174.603208 
L 630.782347 181.535519 
L 636.180461 192.109798 
L 638.879517 196.975362 
L 641.578574 201.346746 
L 644.277631 205.146578 
L 646.077002 207.353862 
L 647.876373 209.311387 
L 649.675745 211.039226 
L 652.374801 213.261067 
L 655.073858 215.137287 
L 658.672601 217.299115 
L 682.064426 230.357661 
L 685.663168 231.941139 
L 689.261911 233.229392 
L 692.860653 234.237545 
L 696.459395 235.022862 
L 702.757195 236.112997 
L 704.556566 236.409867 
L 704.556566 236.409867 
" clip-path="url(#p4407c71e8b)" style="fill: none; stroke: #0000ff; stroke-width: 1.5; stroke-linecap: round"/>
   </g>
   <g id="patch_39">
    <path d="M 516.567261 244.980938 
L 516.567261 23.220937 
" style="fill: none; stroke: #000000; stroke-width: 1.5; stroke-linejoin: miter; stroke-linecap: square"/>
   </g>
   <g id="patch_40">
    <path d="M 516.567261 244.980938 
L 713.508438 244.980938 
" style="fill: none; stroke: #000000; stroke-width: 1.5; stroke-linejoin: miter; stroke-linecap: square"/>
   </g>
   <g id="text_48">
    <!-- 3-back -->
    <g style="fill: #262626" transform="translate(592.860974 17.220937) scale(0.14 -0.14)">
     <defs>
      <path id="Arial-BoldMT-33" d="M 241 1216 
L 1091 1319 
Q 1131 994 1309 822 
Q 1488 650 1741 650 
Q 2013 650 2198 856 
Q 2384 1063 2384 1413 
Q 2384 1744 2206 1937 
Q 2028 2131 1772 2131 
Q 1603 2131 1369 2066 
L 1466 2781 
Q 1822 2772 2009 2936 
Q 2197 3100 2197 3372 
Q 2197 3603 2059 3740 
Q 1922 3878 1694 3878 
Q 1469 3878 1309 3722 
Q 1150 3566 1116 3266 
L 306 3403 
Q 391 3819 561 4067 
Q 731 4316 1036 4458 
Q 1341 4600 1719 4600 
Q 2366 4600 2756 4188 
Q 3078 3850 3078 3425 
Q 3078 2822 2419 2463 
Q 2813 2378 3048 2084 
Q 3284 1791 3284 1375 
Q 3284 772 2843 347 
Q 2403 -78 1747 -78 
Q 1125 -78 715 280 
Q 306 638 241 1216 
z
" transform="scale(0.015625)"/>
     </defs>
     <use xlink:href="#Arial-BoldMT-33"/>
     <use xlink:href="#Arial-BoldMT-2d" x="55.615234"/>
     <use xlink:href="#Arial-BoldMT-62" x="88.916016"/>
     <use xlink:href="#Arial-BoldMT-61" x="150"/>
     <use xlink:href="#Arial-BoldMT-63" x="205.615234"/>
     <use xlink:href="#Arial-BoldMT-6b" x="261.230469"/>
    </g>
   </g>
  </g>
 </g>
 <defs>
  <clipPath id="p2fb56fc125">
   <rect x="43.908438" y="23.220937" width="196.941176" height="221.76"/>
  </clipPath>
  <clipPath id="p4bbe3f1492">
   <rect x="280.237849" y="23.220937" width="196.941176" height="221.76"/>
  </clipPath>
  <clipPath id="p4407c71e8b">
   <rect x="516.567261" y="23.220937" width="196.941176" height="221.76"/>
  </clipPath>
 </defs>
</svg>
