<?xml version="1.0" encoding="utf-8" standalone="no"?>
<!DOCTYPE svg PUBLIC "-//W3C//DTD SVG 1.1//EN"
  "http://www.w3.org/Graphics/SVG/1.1/DTD/svg11.dtd">
<svg xmlns:xlink="http://www.w3.org/1999/xlink" width="576pt" height="432pt" viewBox="0 0 576 432" xmlns="http://www.w3.org/2000/svg" version="1.1">
 <metadata>
  <rdf:RDF xmlns:dc="http://purl.org/dc/elements/1.1/" xmlns:cc="http://creativecommons.org/ns#" xmlns:rdf="http://www.w3.org/1999/02/22-rdf-syntax-ns#">
   <cc:Work>
    <dc:type rdf:resource="http://purl.org/dc/dcmitype/StillImage"/>
    <dc:date>2026-03-01T03:45:51.517895</dc:date>
    <dc:format>image/svg+xml</dc:format>
    <dc:creator>
     <cc:Agent>
      <dc:title>Matplotlib v3.9.2, https://matplotlib.org/</dc:title>
     </cc:Agent>
    </dc:creator>
   </cc:Work>
  </rdf:RDF>
 </metadata>
 <defs>
  <style type="text/css">*{stroke-linejoin: round; stroke-linecap: butt}</style>
 </defs>
 <g id="figure_1">
  <g id="patch_1">
   <path d="M 0 432 
L 576 432 
L 576 0 
L 0 0 
z
" style="fill: #ffffff"/>
  </g>
  <g id="axes_1">
   <g id="patch_2">
    <path d="M 72 196.466087 
L 266.086957 196.466087 
L 266.086957 51.84 
L 72 51.84 
z
" style="fill: #ffffff"/>
   </g>
   <g id="matplotlib.axis_1">
    <g id="xtick_1">
     <g id="line2d_1">
      <defs>
       <path id="ma29a491b0d" d="M 0 0 
L 0 6 
" style="stroke: #262626; stroke-width: 1.25"/>
      </defs>
      <g>
       <use xlink:href="#ma29a491b0d" x="106.028233" y="196.466087" style="fill: #262626; stroke: #262626; stroke-width: 1.25"/>
      </g>
     </g>
     <g id="text_1">
      <!-- 1-back -->
      <g style="fill: #262626" transform="translate(89.521358 213.839681) scale(0.11 -0.11)">
       <defs>
        <path id="ArialMT-31" d="M 2384 0 
L 1822 0 
L 1822 3584 
Q 1619 3391 1289 3197 
Q 959 3003 697 2906 
L 697 3450 
Q 1169 3672 1522 3987 
Q 1875 4303 2022 4600 
L 2384 4600 
L 2384 0 
z
" transform="scale(0.015625)"/>
        <path id="ArialMT-2d" d="M 203 1375 
L 203 1941 
L 1931 1941 
L 1931 1375 
L 203 1375 
z
" transform="scale(0.015625)"/>
        <path id="ArialMT-62" d="M 941 0 
L 419 0 
L 419 4581 
L 981 4581 
L 981 2947 
Q 1338 3394 1891 3394 
Q 2197 3394 2470 3270 
Q 2744 3147 2920 2923 
Q 3097 2700 3197 2384 
Q 3297 2069 3297 1709 
Q 3297 856 2875 390 
Q 2453 -75 1863 -75 
Q 1275 -75 941 416 
L 941 0 
z
M 934 1684 
Q 934 1088 1097 822 
Q 1363 388 1816 388 
Q 2184 388 2453 708 
Q 2722 1028 2722 1663 
Q 2722 2313 2464 2622 
Q 2206 2931 1841 2931 
Q 1472 2931 1203 2611 
Q 934 2291 934 1684 
z
" transform="scale(0.015625)"/>
        <path id="ArialMT-61" d="M 2588 409 
Q 2275 144 1986 34 
Q 1697 -75 1366 -75 
Q 819 -75 525 192 
Q 231 459 231 875 
Q 231 1119 342 1320 
Q 453 1522 633 1644 
Q 813 1766 1038 1828 
Q 1203 1872 1538 1913 
Q 2219 1994 2541 2106 
Q 2544 2222 2544 2253 
Q 2544 2597 2384 2738 
Q 2169 2928 1744 2928 
Q 1347 2928 1158 2789 
Q 969 2650 878 2297 
L 328 2372 
Q 403 2725 575 2942 
Q 747 3159 1072 3276 
Q 1397 3394 1825 3394 
Q 2250 3394 2515 3294 
Q 2781 3194 2906 3042 
Q 3031 2891 3081 2659 
Q 3109 2516 3109 2141 
L 3109 1391 
Q 3109 606 3145 398 
Q 3181 191 3288 0 
L 2700 0 
Q 2613 175 2588 409 
z
M 2541 1666 
Q 2234 1541 1622 1453 
Q 1275 1403 1131 1340 
Q 988 1278 909 1158 
Q 831 1038 831 891 
Q 831 666 1001 516 
Q 1172 366 1500 366 
Q 1825 366 2078 508 
Q 2331 650 2450 897 
Q 2541 1088 2541 1459 
L 2541 1666 
z
" transform="scale(0.015625)"/>
        <path id="ArialMT-63" d="M 2588 1216 
L 3141 1144 
Q 3050 572 2676 248 
Q 2303 -75 1759 -75 
Q 1078 -75 664 370 
Q 250 816 250 1647 
Q 250 2184 428 2587 
Q 606 2991 970 3192 
Q 1334 3394 1763 3394 
Q 2303 3394 2647 3120 
Q 2991 2847 3088 2344 
L 2541 2259 
Q 2463 2594 2264 2762 
Q 2066 2931 1784 2931 
Q 1359 2931 1093 2626 
Q 828 2322 828 1663 
Q 828 994 1084 691 
Q 1341 388 1753 388 
Q 2084 388 2306 591 
Q 2528 794 2588 1216 
z
" transform="scale(0.015625)"/>
        <path id="ArialMT-6b" d="M 425 0 
L 425 4581 
L 988 4581 
L 988 1969 
L 2319 3319 
L 3047 3319 
L 1778 2088 
L 3175 0 
L 2481 0 
L 1384 1697 
L 988 1316 
L 988 0 
L 425 0 
z
" transform="scale(0.015625)"/>
       </defs>
       <use xlink:href="#ArialMT-31"/>
       <use xlink:href="#ArialMT-2d" x="55.615234"/>
       <use xlink:href="#ArialMT-62" x="88.916016"/>
       <use xlink:href="#ArialMT-61" x="144.53125"/>
       <use xlink:href="#ArialMT-63" x="200.146484"/>
       <use xlink:href="#ArialMT-6b" x="250.146484"/>
      </g>
     </g>
    </g>
    <g id="xtick_2">
     <g id="line2d_2">
      <g>
       <use xlink:href="#ma29a491b0d" x="169.043478" y="196.466087" style="fill: #262626; stroke: #262626; stroke-width: 1.25"/>
      </g>
     </g>
     <g id="text_2">
      <!-- 2-back -->
      <g style="fill: #262626" transform="translate(152.536603 213.839681) scale(0.11 -0.11)">
       <defs>
        <path id="ArialMT-32" d="M 3222 541 
L 3222 0 
L 194 0 
Q 188 203 259 391 
Q 375 700 629 1000 
Q 884 1300 1366 1694 
Q 2113 2306 2375 2664 
Q 2638 3022 2638 3341 
Q 2638 3675 2398 3904 
Q 2159 4134 1775 4134 
Q 1369 4134 1125 3890 
Q 881 3647 878 3216 
L 300 3275 
Q 359 3922 746 4261 
Q 1134 4600 1788 4600 
Q 2447 4600 2831 4234 
Q 3216 3869 3216 3328 
Q 3216 3053 3103 2787 
Q 2991 2522 2730 2228 
Q 2469 1934 1863 1422 
Q 1356 997 1212 845 
Q 1069 694 975 541 
L 3222 541 
z
" transform="scale(0.015625)"/>
       </defs>
       <use xlink:href="#ArialMT-32"/>
       <use xlink:href="#ArialMT-2d" x="55.615234"/>
       <use xlink:href="#ArialMT-62" x="88.916016"/>
       <use xlink:href="#ArialMT-61" x="144.53125"/>
       <use xlink:href="#ArialMT-63" x="200.146484"/>
       <use xlink:href="#ArialMT-6b" x="250.146484"/>
      </g>
     </g>
    </g>
    <g id="xtick_3">
     <g id="line2d_3">
      <g>
       <use xlink:href="#ma29a491b0d" x="232.058724" y="196.466087" style="fill: #262626; stroke: #262626; stroke-width: 1.25"/>
      </g>
     </g>
     <g id="text_3">
      <!-- 3-back -->
      <g style="fill: #262626" transform="translate(215.551849 213.839681) scale(0.11 -0.11)">
       <defs>
        <path id="ArialMT-33" d="M 269 1209 
L 831 1284 
Q 928 806 1161 595 
Q 1394 384 1728 384 
Q 2125 384 2398 659 
Q 2672 934 2672 1341 
Q 2672 1728 2419 1979 
Q 2166 2231 1775 2231 
Q 1616 2231 1378 2169 
L 1441 2663 
Q 1497 2656 1531 2656 
Q 1891 2656 2178 2843 
Q 2466 3031 2466 3422 
Q 2466 3731 2256 3934 
Q 2047 4138 1716 4138 
Q 1388 4138 1169 3931 
Q 950 3725 888 3313 
L 325 3413 
Q 428 3978 793 4289 
Q 1159 4600 1703 4600 
Q 2078 4600 2393 4439 
Q 2709 4278 2876 4000 
Q 3044 3722 3044 3409 
Q 3044 3113 2884 2869 
Q 2725 2625 2413 2481 
Q 2819 2388 3044 2092 
Q 3269 1797 3269 1353 
Q 3269 753 2831 336 
Q 2394 -81 1725 -81 
Q 1122 -81 723 278 
Q 325 638 269 1209 
z
" transform="scale(0.015625)"/>
       </defs>
       <use xlink:href="#ArialMT-33"/>
       <use xlink:href="#ArialMT-2d" x="55.615234"/>
       <use xlink:href="#ArialMT-62" x="88.916016"/>
       <use xlink:href="#ArialMT-61" x="144.53125"/>
       <use xlink:href="#ArialMT-63" x="200.146484"/>
       <use xlink:href="#ArialMT-6b" x="250.146484"/>
      </g>
     </g>
    </g>
   </g>
   <g id="matplotlib.axis_2">
    <g id="ytick_1">
     <g id="line2d_4">
      <defs>
       <path id="m7934691933" d="M 0 0 
L -6 0 
" style="stroke: #262626; stroke-width: 1.25"/>
      </defs>
      <g>
       <use xlink:href="#m7934691933" x="72" y="196.466087" style="fill: #262626; stroke: #262626; stroke-width: 1.25"/>
      </g>
     </g>
     <g id="text_4">
      <!-- 0 -->
      <g style="fill: #262626" transform="translate(56.382969 200.402884) scale(0.11 -0.11)">
       <defs>
        <path id="ArialMT-30" d="M 266 2259 
Q 266 3072 433 3567 
Q 600 4063 929 4331 
Q 1259 4600 1759 4600 
Q 2128 4600 2406 4451 
Q 2684 4303 2865 4023 
Q 3047 3744 3150 3342 
Q 3253 2941 3253 2259 
Q 3253 1453 3087 958 
Q 2922 463 2592 192 
Q 2263 -78 1759 -78 
Q 1097 -78 719 397 
Q 266 969 266 2259 
z
M 844 2259 
Q 844 1131 1108 757 
Q 1372 384 1759 384 
Q 2147 384 2411 759 
Q 2675 1134 2675 2259 
Q 2675 3391 2411 3762 
Q 2147 4134 1753 4134 
Q 1366 4134 1134 3806 
Q 844 3388 844 2259 
z
" transform="scale(0.015625)"/>
       </defs>
       <use xlink:href="#ArialMT-30"/>
      </g>
     </g>
    </g>
    <g id="ytick_2">
     <g id="line2d_5">
      <g>
       <use xlink:href="#m7934691933" x="72" y="167.24041" style="fill: #262626; stroke: #262626; stroke-width: 1.25"/>
      </g>
     </g>
     <g id="text_5">
      <!-- 20 -->
      <g style="fill: #262626" transform="translate(50.265937 171.177207) scale(0.11 -0.11)">
       <use xlink:href="#ArialMT-32"/>
       <use xlink:href="#ArialMT-30" x="55.615234"/>
      </g>
     </g>
    </g>
    <g id="ytick_3">
     <g id="line2d_6">
      <g>
       <use xlink:href="#m7934691933" x="72" y="138.014733" style="fill: #262626; stroke: #262626; stroke-width: 1.25"/>
      </g>
     </g>
     <g id="text_6">
      <!-- 40 -->
      <g style="fill: #262626" transform="translate(50.265937 141.95153) scale(0.11 -0.11)">
       <defs>
        <path id="ArialMT-34" d="M 2069 0 
L 2069 1097 
L 81 1097 
L 81 1613 
L 2172 4581 
L 2631 4581 
L 2631 1613 
L 3250 1613 
L 3250 1097 
L 2631 1097 
L 2631 0 
L 2069 0 
z
M 2069 1613 
L 2069 3678 
L 634 1613 
L 2069 1613 
z
" transform="scale(0.015625)"/>
       </defs>
       <use xlink:href="#ArialMT-34"/>
       <use xlink:href="#ArialMT-30" x="55.615234"/>
      </g>
     </g>
    </g>
    <g id="ytick_4">
     <g id="line2d_7">
      <g>
       <use xlink:href="#m7934691933" x="72" y="108.789056" style="fill: #262626; stroke: #262626; stroke-width: 1.25"/>
      </g>
     </g>
     <g id="text_7">
      <!-- 60 -->
      <g style="fill: #262626" transform="translate(50.265937 112.725853) scale(0.11 -0.11)">
       <defs>
        <path id="ArialMT-36" d="M 3184 3459 
L 2625 3416 
Q 2550 3747 2413 3897 
Q 2184 4138 1850 4138 
Q 1581 4138 1378 3988 
Q 1113 3794 959 3422 
Q 806 3050 800 2363 
Q 1003 2672 1297 2822 
Q 1591 2972 1913 2972 
Q 2475 2972 2870 2558 
Q 3266 2144 3266 1488 
Q 3266 1056 3080 686 
Q 2894 316 2569 119 
Q 2244 -78 1831 -78 
Q 1128 -78 684 439 
Q 241 956 241 2144 
Q 241 3472 731 4075 
Q 1159 4600 1884 4600 
Q 2425 4600 2770 4297 
Q 3116 3994 3184 3459 
z
M 888 1484 
Q 888 1194 1011 928 
Q 1134 663 1356 523 
Q 1578 384 1822 384 
Q 2178 384 2434 671 
Q 2691 959 2691 1453 
Q 2691 1928 2437 2201 
Q 2184 2475 1800 2475 
Q 1419 2475 1153 2201 
Q 888 1928 888 1484 
z
" transform="scale(0.015625)"/>
       </defs>
       <use xlink:href="#ArialMT-36"/>
       <use xlink:href="#ArialMT-30" x="55.615234"/>
      </g>
     </g>
    </g>
    <g id="ytick_5">
     <g id="line2d_8">
      <g>
       <use xlink:href="#m7934691933" x="72" y="79.563379" style="fill: #262626; stroke: #262626; stroke-width: 1.25"/>
      </g>
     </g>
     <g id="text_8">
      <!-- 80 -->
      <g style="fill: #262626" transform="translate(50.265937 83.500176) scale(0.11 -0.11)">
       <defs>
        <path id="ArialMT-38" d="M 1131 2484 
Q 781 2613 612 2850 
Q 444 3088 444 3419 
Q 444 3919 803 4259 
Q 1163 4600 1759 4600 
Q 2359 4600 2725 4251 
Q 3091 3903 3091 3403 
Q 3091 3084 2923 2848 
Q 2756 2613 2416 2484 
Q 2838 2347 3058 2040 
Q 3278 1734 3278 1309 
Q 3278 722 2862 322 
Q 2447 -78 1769 -78 
Q 1091 -78 675 323 
Q 259 725 259 1325 
Q 259 1772 486 2073 
Q 713 2375 1131 2484 
z
M 1019 3438 
Q 1019 3113 1228 2906 
Q 1438 2700 1772 2700 
Q 2097 2700 2305 2904 
Q 2513 3109 2513 3406 
Q 2513 3716 2298 3927 
Q 2084 4138 1766 4138 
Q 1444 4138 1231 3931 
Q 1019 3725 1019 3438 
z
M 838 1322 
Q 838 1081 952 856 
Q 1066 631 1291 507 
Q 1516 384 1775 384 
Q 2178 384 2440 643 
Q 2703 903 2703 1303 
Q 2703 1709 2433 1975 
Q 2163 2241 1756 2241 
Q 1359 2241 1098 1978 
Q 838 1716 838 1322 
z
" transform="scale(0.015625)"/>
       </defs>
       <use xlink:href="#ArialMT-38"/>
       <use xlink:href="#ArialMT-30" x="55.615234"/>
      </g>
     </g>
    </g>
   </g>
   <g id="patch_3">
    <path d="M 80.822134 196.466087 
L 131.234331 196.466087 
L 131.234331 63.489256 
L 80.822134 63.489256 
z
" clip-path="url(#p38b69d98f0)" style="fill: #4b8bbe; stroke: #000000; stroke-width: 1.5; stroke-linejoin: miter"/>
   </g>
   <g id="patch_4">
    <path d="M 143.83738 196.466087 
L 194.249577 196.466087 
L 194.249577 155.91546 
L 143.83738 155.91546 
z
" clip-path="url(#p38b69d98f0)" style="fill: #4b8bbe; stroke: #000000; stroke-width: 1.5; stroke-linejoin: miter"/>
   </g>
   <g id="patch_5">
    <path d="M 206.852626 196.466087 
L 257.264822 196.466087 
L 257.264822 165.048484 
L 206.852626 165.048484 
z
" clip-path="url(#p38b69d98f0)" style="fill: #4b8bbe; stroke: #000000; stroke-width: 1.5; stroke-linejoin: miter"/>
   </g>
   <g id="LineCollection_1">
    <path d="M 106.028233 68.251556 
L 106.028233 58.726957 
" clip-path="url(#p38b69d98f0)" style="fill: none; stroke: #1a1a1a; stroke-width: 1.5"/>
    <path d="M 169.043478 162.58685 
L 169.043478 149.24407 
" clip-path="url(#p38b69d98f0)" style="fill: none; stroke: #1a1a1a; stroke-width: 1.5"/>
    <path d="M 232.058724 169.810784 
L 232.058724 160.286184 
" clip-path="url(#p38b69d98f0)" style="fill: none; stroke: #1a1a1a; stroke-width: 1.5"/>
   </g>
   <g id="line2d_9">
    <defs>
     <path id="m6d18dfb818" d="M 5 0 
L -5 -0 
" style="stroke: #1a1a1a"/>
    </defs>
    <g clip-path="url(#p38b69d98f0)">
     <use xlink:href="#m6d18dfb818" x="106.028233" y="68.251556" style="fill: #1a1a1a; stroke: #1a1a1a"/>
     <use xlink:href="#m6d18dfb818" x="169.043478" y="162.58685" style="fill: #1a1a1a; stroke: #1a1a1a"/>
     <use xlink:href="#m6d18dfb818" x="232.058724" y="169.810784" style="fill: #1a1a1a; stroke: #1a1a1a"/>
    </g>
   </g>
   <g id="line2d_10">
    <g clip-path="url(#p38b69d98f0)">
     <use xlink:href="#m6d18dfb818" x="106.028233" y="58.726957" style="fill: #1a1a1a; stroke: #1a1a1a"/>
     <use xlink:href="#m6d18dfb818" x="169.043478" y="149.24407" style="fill: #1a1a1a; stroke: #1a1a1a"/>
     <use xlink:href="#m6d18dfb818" x="232.058724" y="160.286184" style="fill: #1a1a1a; stroke: #1a1a1a"/>
    </g>
   </g>
   <g id="patch_6">
    <path d="M 72 196.466087 
L 72 51.84 
" style="fill: none; stroke: #000000; stroke-width: 1.5; stroke-linejoin: miter; stroke-linecap: square"/>
   </g>
   <g id="patch_7">
    <path d="M 72 196.466087 
L 266.086957 196.466087 
" style="fill: none; stroke: #000000; stroke-width: 1.5; stroke-linejoin: miter; stroke-linecap: square"/>
   </g>
   <g id="text_9">
    <!-- Hit rate (%) -->
    <g style="fill: #262626" transform="translate(132.096603 45.84) scale(0.14 -0.14)">
     <defs>
      <path id="Arial-BoldMT-48" d="M 469 0 
L 469 4581 
L 1394 4581 
L 1394 2778 
L 3206 2778 
L 3206 4581 
L 4131 4581 
L 4131 0 
L 3206 0 
L 3206 2003 
L 1394 2003 
L 1394 0 
L 469 0 
z
" transform="scale(0.015625)"/>
      <path id="Arial-BoldMT-69" d="M 459 3769 
L 459 4581 
L 1338 4581 
L 1338 3769 
L 459 3769 
z
M 459 0 
L 459 3319 
L 1338 3319 
L 1338 0 
L 459 0 
z
" transform="scale(0.015625)"/>
      <path id="Arial-BoldMT-74" d="M 1981 3319 
L 1981 2619 
L 1381 2619 
L 1381 1281 
Q 1381 875 1398 808 
Q 1416 741 1477 697 
Q 1538 653 1625 653 
Q 1747 653 1978 738 
L 2053 56 
Q 1747 -75 1359 -75 
Q 1122 -75 931 4 
Q 741 84 652 211 
Q 563 338 528 553 
Q 500 706 500 1172 
L 500 2619 
L 97 2619 
L 97 3319 
L 500 3319 
L 500 3978 
L 1381 4491 
L 1381 3319 
L 1981 3319 
z
" transform="scale(0.015625)"/>
      <path id="Arial-BoldMT-20" transform="scale(0.015625)"/>
      <path id="Arial-BoldMT-72" d="M 1300 0 
L 422 0 
L 422 3319 
L 1238 3319 
L 1238 2847 
Q 1447 3181 1614 3287 
Q 1781 3394 1994 3394 
Q 2294 3394 2572 3228 
L 2300 2463 
Q 2078 2606 1888 2606 
Q 1703 2606 1575 2504 
Q 1447 2403 1373 2137 
Q 1300 1872 1300 1025 
L 1300 0 
z
" transform="scale(0.015625)"/>
      <path id="Arial-BoldMT-61" d="M 1116 2306 
L 319 2450 
Q 453 2931 781 3162 
Q 1109 3394 1756 3394 
Q 2344 3394 2631 3255 
Q 2919 3116 3036 2902 
Q 3153 2688 3153 2116 
L 3144 1091 
Q 3144 653 3186 445 
Q 3228 238 3344 0 
L 2475 0 
Q 2441 88 2391 259 
Q 2369 338 2359 363 
Q 2134 144 1878 34 
Q 1622 -75 1331 -75 
Q 819 -75 523 203 
Q 228 481 228 906 
Q 228 1188 362 1408 
Q 497 1628 739 1745 
Q 981 1863 1438 1950 
Q 2053 2066 2291 2166 
L 2291 2253 
Q 2291 2506 2166 2614 
Q 2041 2722 1694 2722 
Q 1459 2722 1328 2630 
Q 1197 2538 1116 2306 
z
M 2291 1594 
Q 2122 1538 1756 1459 
Q 1391 1381 1278 1306 
Q 1106 1184 1106 997 
Q 1106 813 1243 678 
Q 1381 544 1594 544 
Q 1831 544 2047 700 
Q 2206 819 2256 991 
Q 2291 1103 2291 1419 
L 2291 1594 
z
" transform="scale(0.015625)"/>
      <path id="Arial-BoldMT-65" d="M 2381 1056 
L 3256 909 
Q 3088 428 2723 176 
Q 2359 -75 1813 -75 
Q 947 -75 531 491 
Q 203 944 203 1634 
Q 203 2459 634 2926 
Q 1066 3394 1725 3394 
Q 2466 3394 2894 2905 
Q 3322 2416 3303 1406 
L 1103 1406 
Q 1113 1016 1316 798 
Q 1519 581 1822 581 
Q 2028 581 2168 693 
Q 2309 806 2381 1056 
z
M 2431 1944 
Q 2422 2325 2234 2523 
Q 2047 2722 1778 2722 
Q 1491 2722 1303 2513 
Q 1116 2303 1119 1944 
L 2431 1944 
z
" transform="scale(0.015625)"/>
      <path id="Arial-BoldMT-28" d="M 1916 -1347 
L 1313 -1347 
Q 834 -625 584 153 
Q 334 931 334 1659 
Q 334 2563 644 3369 
Q 913 4069 1325 4659 
L 1925 4659 
Q 1497 3713 1336 3048 
Q 1175 2384 1175 1641 
Q 1175 1128 1270 590 
Q 1366 53 1531 -431 
Q 1641 -750 1916 -1347 
z
" transform="scale(0.015625)"/>
      <path id="Arial-BoldMT-25" d="M 278 3450 
Q 278 4066 548 4362 
Q 819 4659 1281 4659 
Q 1759 4659 2029 4364 
Q 2300 4069 2300 3450 
Q 2300 2834 2029 2537 
Q 1759 2241 1297 2241 
Q 819 2241 548 2536 
Q 278 2831 278 3450 
z
M 963 3456 
Q 963 3009 1066 2856 
Q 1144 2744 1281 2744 
Q 1422 2744 1500 2856 
Q 1600 3009 1600 3456 
Q 1600 3903 1500 4053 
Q 1422 4169 1281 4169 
Q 1144 4169 1066 4056 
Q 963 3903 963 3456 
z
M 1950 -175 
L 1300 -175 
L 3741 4659 
L 4372 4659 
L 1950 -175 
z
M 3369 1028 
Q 3369 1644 3639 1941 
Q 3909 2238 4378 2238 
Q 4850 2238 5120 1941 
Q 5391 1644 5391 1028 
Q 5391 409 5120 112 
Q 4850 -184 4388 -184 
Q 3909 -184 3639 112 
Q 3369 409 3369 1028 
z
M 4053 1031 
Q 4053 584 4156 434 
Q 4234 319 4372 319 
Q 4513 319 4588 431 
Q 4691 584 4691 1031 
Q 4691 1478 4591 1631 
Q 4513 1744 4372 1744 
Q 4231 1744 4156 1631 
Q 4053 1478 4053 1031 
z
" transform="scale(0.015625)"/>
      <path id="Arial-BoldMT-29" d="M 216 -1347 
Q 475 -791 581 -494 
Q 688 -197 778 190 
Q 869 578 912 926 
Q 956 1275 956 1641 
Q 956 2384 797 3048 
Q 638 3713 209 4659 
L 806 4659 
Q 1278 3988 1539 3234 
Q 1800 2481 1800 1706 
Q 1800 1053 1594 306 
Q 1359 -531 822 -1347 
L 216 -1347 
z
" transform="scale(0.015625)"/>
     </defs>
     <use xlink:href="#Arial-BoldMT-48"/>
     <use xlink:href="#Arial-BoldMT-69" x="72.216797"/>
     <use xlink:href="#Arial-BoldMT-74" x="100"/>
     <use xlink:href="#Arial-BoldMT-20" x="133.300781"/>
     <use xlink:href="#Arial-BoldMT-72" x="161.083984"/>
     <use xlink:href="#Arial-BoldMT-61" x="200"/>
     <use xlink:href="#Arial-BoldMT-74" x="255.615234"/>
     <use xlink:href="#Arial-BoldMT-65" x="288.916016"/>
     <use xlink:href="#Arial-BoldMT-20" x="344.53125"/>
     <use xlink:href="#Arial-BoldMT-28" x="372.314453"/>
     <use xlink:href="#Arial-BoldMT-25" x="405.615234"/>
     <use xlink:href="#Arial-BoldMT-29" x="494.53125"/>
    </g>
   </g>
  </g>
  <g id="axes_2">
   <g id="patch_8">
    <path d="M 324.313043 196.466087 
L 518.4 196.466087 
L 518.4 51.84 
L 324.313043 51.84 
z
" style="fill: #ffffff"/>
   </g>
   <g id="matplotlib.axis_3">
    <g id="xtick_4">
     <g id="line2d_11">
      <g>
       <use xlink:href="#ma29a491b0d" x="358.341276" y="196.466087" style="fill: #262626; stroke: #262626; stroke-width: 1.25"/>
      </g>
     </g>
     <g id="text_10">
      <!-- 1-back -->
      <g style="fill: #262626" transform="translate(341.834401 213.839681) scale(0.11 -0.11)">
       <use xlink:href="#ArialMT-31"/>
       <use xlink:href="#ArialMT-2d" x="55.615234"/>
       <use xlink:href="#ArialMT-62" x="88.916016"/>
       <use xlink:href="#ArialMT-61" x="144.53125"/>
       <use xlink:href="#ArialMT-63" x="200.146484"/>
       <use xlink:href="#ArialMT-6b" x="250.146484"/>
      </g>
     </g>
    </g>
    <g id="xtick_5">
     <g id="line2d_12">
      <g>
       <use xlink:href="#ma29a491b0d" x="421.356522" y="196.466087" style="fill: #262626; stroke: #262626; stroke-width: 1.25"/>
      </g>
     </g>
     <g id="text_11">
      <!-- 2-back -->
      <g style="fill: #262626" transform="translate(404.849647 213.839681) scale(0.11 -0.11)">
       <use xlink:href="#ArialMT-32"/>
       <use xlink:href="#ArialMT-2d" x="55.615234"/>
       <use xlink:href="#ArialMT-62" x="88.916016"/>
       <use xlink:href="#ArialMT-61" x="144.53125"/>
       <use xlink:href="#ArialMT-63" x="200.146484"/>
       <use xlink:href="#ArialMT-6b" x="250.146484"/>
      </g>
     </g>
    </g>
    <g id="xtick_6">
     <g id="line2d_13">
      <g>
       <use xlink:href="#ma29a491b0d" x="484.371767" y="196.466087" style="fill: #262626; stroke: #262626; stroke-width: 1.25"/>
      </g>
     </g>
     <g id="text_12">
      <!-- 3-back -->
      <g style="fill: #262626" transform="translate(467.864892 213.839681) scale(0.11 -0.11)">
       <use xlink:href="#ArialMT-33"/>
       <use xlink:href="#ArialMT-2d" x="55.615234"/>
       <use xlink:href="#ArialMT-62" x="88.916016"/>
       <use xlink:href="#ArialMT-61" x="144.53125"/>
       <use xlink:href="#ArialMT-63" x="200.146484"/>
       <use xlink:href="#ArialMT-6b" x="250.146484"/>
      </g>
     </g>
    </g>
   </g>
   <g id="matplotlib.axis_4">
    <g id="ytick_6">
     <g id="line2d_14">
      <g>
       <use xlink:href="#m7934691933" x="324.313043" y="196.466087" style="fill: #262626; stroke: #262626; stroke-width: 1.25"/>
      </g>
     </g>
     <g id="text_13">
      <!-- 0 -->
      <g style="fill: #262626" transform="translate(308.696012 200.402884) scale(0.11 -0.11)">
       <use xlink:href="#ArialMT-30"/>
      </g>
     </g>
    </g>
    <g id="ytick_7">
     <g id="line2d_15">
      <g>
       <use xlink:href="#m7934691933" x="324.313043" y="166.332271" style="fill: #262626; stroke: #262626; stroke-width: 1.25"/>
      </g>
     </g>
     <g id="text_14">
      <!-- 2 -->
      <g style="fill: #262626" transform="translate(308.696012 170.269068) scale(0.11 -0.11)">
       <use xlink:href="#ArialMT-32"/>
      </g>
     </g>
    </g>
    <g id="ytick_8">
     <g id="line2d_16">
      <g>
       <use xlink:href="#m7934691933" x="324.313043" y="136.198455" style="fill: #262626; stroke: #262626; stroke-width: 1.25"/>
      </g>
     </g>
     <g id="text_15">
      <!-- 4 -->
      <g style="fill: #262626" transform="translate(308.696012 140.135252) scale(0.11 -0.11)">
       <use xlink:href="#ArialMT-34"/>
      </g>
     </g>
    </g>
    <g id="ytick_9">
     <g id="line2d_17">
      <g>
       <use xlink:href="#m7934691933" x="324.313043" y="106.064639" style="fill: #262626; stroke: #262626; stroke-width: 1.25"/>
      </g>
     </g>
     <g id="text_16">
      <!-- 6 -->
      <g style="fill: #262626" transform="translate(308.696012 110.001436) scale(0.11 -0.11)">
       <use xlink:href="#ArialMT-36"/>
      </g>
     </g>
    </g>
    <g id="ytick_10">
     <g id="line2d_18">
      <g>
       <use xlink:href="#m7934691933" x="324.313043" y="75.930823" style="fill: #262626; stroke: #262626; stroke-width: 1.25"/>
      </g>
     </g>
     <g id="text_17">
      <!-- 8 -->
      <g style="fill: #262626" transform="translate(308.696012 79.86762) scale(0.11 -0.11)">
       <use xlink:href="#ArialMT-38"/>
      </g>
     </g>
    </g>
   </g>
   <g id="patch_9">
    <path d="M 333.135178 196.466087 
L 383.547374 196.466087 
L 383.547374 158.798817 
L 333.135178 158.798817 
z
" clip-path="url(#pead58c3ce0)" style="fill: #4b8bbe; stroke: #000000; stroke-width: 1.5; stroke-linejoin: miter"/>
   </g>
   <g id="patch_10">
    <path d="M 396.150423 196.466087 
L 446.56262 196.466087 
L 446.56262 87.231004 
L 396.150423 87.231004 
z
" clip-path="url(#pead58c3ce0)" style="fill: #4b8bbe; stroke: #000000; stroke-width: 1.5; stroke-linejoin: miter"/>
   </g>
   <g id="patch_11">
    <path d="M 459.165669 196.466087 
L 509.577866 196.466087 
L 509.577866 85.34764 
L 459.165669 85.34764 
z
" clip-path="url(#pead58c3ce0)" style="fill: #4b8bbe; stroke: #000000; stroke-width: 1.5; stroke-linejoin: miter"/>
   </g>
   <g id="LineCollection_2">
    <path d="M 358.341276 176.550918 
L 358.341276 141.046716 
" clip-path="url(#pead58c3ce0)" style="fill: none; stroke: #1a1a1a; stroke-width: 1.5"/>
    <path d="M 421.356522 115.735051 
L 421.356522 58.726957 
" clip-path="url(#pead58c3ce0)" style="fill: none; stroke: #1a1a1a; stroke-width: 1.5"/>
    <path d="M 484.371767 111.399333 
L 484.371767 59.295948 
" clip-path="url(#pead58c3ce0)" style="fill: none; stroke: #1a1a1a; stroke-width: 1.5"/>
   </g>
   <g id="line2d_19">
    <g clip-path="url(#pead58c3ce0)">
     <use xlink:href="#m6d18dfb818" x="358.341276" y="176.550918" style="fill: #1a1a1a; stroke: #1a1a1a"/>
     <use xlink:href="#m6d18dfb818" x="421.356522" y="115.735051" style="fill: #1a1a1a; stroke: #1a1a1a"/>
     <use xlink:href="#m6d18dfb818" x="484.371767" y="111.399333" style="fill: #1a1a1a; stroke: #1a1a1a"/>
    </g>
   </g>
   <g id="line2d_20">
    <g clip-path="url(#pead58c3ce0)">
     <use xlink:href="#m6d18dfb818" x="358.341276" y="141.046716" style="fill: #1a1a1a; stroke: #1a1a1a"/>
     <use xlink:href="#m6d18dfb818" x="421.356522" y="58.726957" style="fill: #1a1a1a; stroke: #1a1a1a"/>
     <use xlink:href="#m6d18dfb818" x="484.371767" y="59.295948" style="fill: #1a1a1a; stroke: #1a1a1a"/>
    </g>
   </g>
   <g id="patch_12">
    <path d="M 324.313043 196.466087 
L 324.313043 51.84 
" style="fill: none; stroke: #000000; stroke-width: 1.5; stroke-linejoin: miter; stroke-linecap: square"/>
   </g>
   <g id="patch_13">
    <path d="M 324.313043 196.466087 
L 518.4 196.466087 
" style="fill: none; stroke: #000000; stroke-width: 1.5; stroke-linejoin: miter; stroke-linecap: square"/>
   </g>
   <g id="text_18">
    <!-- False alarm rate (%) -->
    <g style="fill: #262626" transform="translate(355.218553 45.84) scale(0.14 -0.14)">
     <defs>
      <path id="Arial-BoldMT-46" d="M 472 0 
L 472 4581 
L 3613 4581 
L 3613 3806 
L 1397 3806 
L 1397 2722 
L 3309 2722 
L 3309 1947 
L 1397 1947 
L 1397 0 
L 472 0 
z
" transform="scale(0.015625)"/>
      <path id="Arial-BoldMT-6c" d="M 459 0 
L 459 4581 
L 1338 4581 
L 1338 0 
L 459 0 
z
" transform="scale(0.015625)"/>
      <path id="Arial-BoldMT-73" d="M 150 947 
L 1031 1081 
Q 1088 825 1259 692 
Q 1431 559 1741 559 
Q 2081 559 2253 684 
Q 2369 772 2369 919 
Q 2369 1019 2306 1084 
Q 2241 1147 2013 1200 
Q 950 1434 666 1628 
Q 272 1897 272 2375 
Q 272 2806 612 3100 
Q 953 3394 1669 3394 
Q 2350 3394 2681 3172 
Q 3013 2950 3138 2516 
L 2309 2363 
Q 2256 2556 2107 2659 
Q 1959 2763 1684 2763 
Q 1338 2763 1188 2666 
Q 1088 2597 1088 2488 
Q 1088 2394 1175 2328 
Q 1294 2241 1995 2081 
Q 2697 1922 2975 1691 
Q 3250 1456 3250 1038 
Q 3250 581 2869 253 
Q 2488 -75 1741 -75 
Q 1063 -75 667 200 
Q 272 475 150 947 
z
" transform="scale(0.015625)"/>
      <path id="Arial-BoldMT-6d" d="M 394 3319 
L 1203 3319 
L 1203 2866 
Q 1638 3394 2238 3394 
Q 2556 3394 2790 3262 
Q 3025 3131 3175 2866 
Q 3394 3131 3647 3262 
Q 3900 3394 4188 3394 
Q 4553 3394 4806 3245 
Q 5059 3097 5184 2809 
Q 5275 2597 5275 2122 
L 5275 0 
L 4397 0 
L 4397 1897 
Q 4397 2391 4306 2534 
Q 4184 2722 3931 2722 
Q 3747 2722 3584 2609 
Q 3422 2497 3350 2280 
Q 3278 2063 3278 1594 
L 3278 0 
L 2400 0 
L 2400 1819 
Q 2400 2303 2353 2443 
Q 2306 2584 2207 2653 
Q 2109 2722 1941 2722 
Q 1738 2722 1575 2612 
Q 1413 2503 1342 2297 
Q 1272 2091 1272 1613 
L 1272 0 
L 394 0 
L 394 3319 
z
" transform="scale(0.015625)"/>
     </defs>
     <use xlink:href="#Arial-BoldMT-46"/>
     <use xlink:href="#Arial-BoldMT-61" x="61.083984"/>
     <use xlink:href="#Arial-BoldMT-6c" x="116.699219"/>
     <use xlink:href="#Arial-BoldMT-73" x="144.482422"/>
     <use xlink:href="#Arial-BoldMT-65" x="200.097656"/>
     <use xlink:href="#Arial-BoldMT-20" x="255.712891"/>
     <use xlink:href="#Arial-BoldMT-61" x="283.496094"/>
     <use xlink:href="#Arial-BoldMT-6c" x="339.111328"/>
     <use xlink:href="#Arial-BoldMT-61" x="366.894531"/>
     <use xlink:href="#Arial-BoldMT-72" x="422.509766"/>
     <use xlink:href="#Arial-BoldMT-6d" x="461.425781"/>
     <use xlink:href="#Arial-BoldMT-20" x="550.341797"/>
     <use xlink:href="#Arial-BoldMT-72" x="578.125"/>
     <use xlink:href="#Arial-BoldMT-61" x="617.041016"/>
     <use xlink:href="#Arial-BoldMT-74" x="672.65625"/>
     <use xlink:href="#Arial-BoldMT-65" x="705.957031"/>
     <use xlink:href="#Arial-BoldMT-20" x="761.572266"/>
     <use xlink:href="#Arial-BoldMT-28" x="789.355469"/>
     <use xlink:href="#Arial-BoldMT-25" x="822.65625"/>
     <use xlink:href="#Arial-BoldMT-29" x="911.572266"/>
    </g>
   </g>
  </g>
  <g id="axes_3">
   <g id="patch_14">
    <path d="M 72 384.48 
L 266.086957 384.48 
L 266.086957 239.853913 
L 72 239.853913 
z
" style="fill: #ffffff"/>
   </g>
   <g id="matplotlib.axis_5">
    <g id="xtick_7">
     <g id="line2d_21">
      <g>
       <use xlink:href="#ma29a491b0d" x="106.028233" y="384.48" style="fill: #262626; stroke: #262626; stroke-width: 1.25"/>
      </g>
     </g>
     <g id="text_19">
      <!-- 1-back -->
      <g style="fill: #262626" transform="translate(89.521358 401.853594) scale(0.11 -0.11)">
       <use xlink:href="#ArialMT-31"/>
       <use xlink:href="#ArialMT-2d" x="55.615234"/>
       <use xlink:href="#ArialMT-62" x="88.916016"/>
       <use xlink:href="#ArialMT-61" x="144.53125"/>
       <use xlink:href="#ArialMT-63" x="200.146484"/>
       <use xlink:href="#ArialMT-6b" x="250.146484"/>
      </g>
     </g>
    </g>
    <g id="xtick_8">
     <g id="line2d_22">
      <g>
       <use xlink:href="#ma29a491b0d" x="169.043478" y="384.48" style="fill: #262626; stroke: #262626; stroke-width: 1.25"/>
      </g>
     </g>
     <g id="text_20">
      <!-- 2-back -->
      <g style="fill: #262626" transform="translate(152.536603 401.853594) scale(0.11 -0.11)">
       <use xlink:href="#ArialMT-32"/>
       <use xlink:href="#ArialMT-2d" x="55.615234"/>
       <use xlink:href="#ArialMT-62" x="88.916016"/>
       <use xlink:href="#ArialMT-61" x="144.53125"/>
       <use xlink:href="#ArialMT-63" x="200.146484"/>
       <use xlink:href="#ArialMT-6b" x="250.146484"/>
      </g>
     </g>
    </g>
    <g id="xtick_9">
     <g id="line2d_23">
      <g>
       <use xlink:href="#ma29a491b0d" x="232.058724" y="384.48" style="fill: #262626; stroke: #262626; stroke-width: 1.25"/>
      </g>
     </g>
     <g id="text_21">
      <!-- 3-back -->
      <g style="fill: #262626" transform="translate(215.551849 401.853594) scale(0.11 -0.11)">
       <use xlink:href="#ArialMT-33"/>
       <use xlink:href="#ArialMT-2d" x="55.615234"/>
       <use xlink:href="#ArialMT-62" x="88.916016"/>
       <use xlink:href="#ArialMT-61" x="144.53125"/>
       <use xlink:href="#ArialMT-63" x="200.146484"/>
       <use xlink:href="#ArialMT-6b" x="250.146484"/>
      </g>
     </g>
    </g>
   </g>
   <g id="matplotlib.axis_6">
    <g id="ytick_11">
     <g id="line2d_24">
      <g>
       <use xlink:href="#m7934691933" x="72" y="384.48" style="fill: #262626; stroke: #262626; stroke-width: 1.25"/>
      </g>
     </g>
     <g id="text_22">
      <!-- 0 -->
      <g style="fill: #262626" transform="translate(56.382969 388.416797) scale(0.11 -0.11)">
       <use xlink:href="#ArialMT-30"/>
      </g>
     </g>
    </g>
    <g id="ytick_12">
     <g id="line2d_25">
      <g>
       <use xlink:href="#m7934691933" x="72" y="355.969282" style="fill: #262626; stroke: #262626; stroke-width: 1.25"/>
      </g>
     </g>
     <g id="text_23">
      <!-- 20 -->
      <g style="fill: #262626" transform="translate(50.265937 359.906079) scale(0.11 -0.11)">
       <use xlink:href="#ArialMT-32"/>
       <use xlink:href="#ArialMT-30" x="55.615234"/>
      </g>
     </g>
    </g>
    <g id="ytick_13">
     <g id="line2d_26">
      <g>
       <use xlink:href="#m7934691933" x="72" y="327.458564" style="fill: #262626; stroke: #262626; stroke-width: 1.25"/>
      </g>
     </g>
     <g id="text_24">
      <!-- 40 -->
      <g style="fill: #262626" transform="translate(50.265937 331.395361) scale(0.11 -0.11)">
       <use xlink:href="#ArialMT-34"/>
       <use xlink:href="#ArialMT-30" x="55.615234"/>
      </g>
     </g>
    </g>
    <g id="ytick_14">
     <g id="line2d_27">
      <g>
       <use xlink:href="#m7934691933" x="72" y="298.947846" style="fill: #262626; stroke: #262626; stroke-width: 1.25"/>
      </g>
     </g>
     <g id="text_25">
      <!-- 60 -->
      <g style="fill: #262626" transform="translate(50.265937 302.884643) scale(0.11 -0.11)">
       <use xlink:href="#ArialMT-36"/>
       <use xlink:href="#ArialMT-30" x="55.615234"/>
      </g>
     </g>
    </g>
    <g id="ytick_15">
     <g id="line2d_28">
      <g>
       <use xlink:href="#m7934691933" x="72" y="270.437128" style="fill: #262626; stroke: #262626; stroke-width: 1.25"/>
      </g>
     </g>
     <g id="text_26">
      <!-- 80 -->
      <g style="fill: #262626" transform="translate(50.265937 274.373925) scale(0.11 -0.11)">
       <use xlink:href="#ArialMT-38"/>
       <use xlink:href="#ArialMT-30" x="55.615234"/>
      </g>
     </g>
    </g>
    <g id="ytick_16">
     <g id="line2d_29">
      <g>
       <use xlink:href="#m7934691933" x="72" y="241.92641" style="fill: #262626; stroke: #262626; stroke-width: 1.25"/>
      </g>
     </g>
     <g id="text_27">
      <!-- 100 -->
      <g style="fill: #262626" transform="translate(44.148906 245.863207) scale(0.11 -0.11)">
       <use xlink:href="#ArialMT-31"/>
       <use xlink:href="#ArialMT-30" x="55.615234"/>
       <use xlink:href="#ArialMT-30" x="111.230469"/>
      </g>
     </g>
    </g>
   </g>
   <g id="patch_15">
    <path d="M 80.822134 384.48 
L 131.234331 384.48 
L 131.234331 248.578911 
L 80.822134 248.578911 
z
" clip-path="url(#p91b4347865)" style="fill: #4b8bbe; stroke: #000000; stroke-width: 1.5; stroke-linejoin: miter"/>
   </g>
   <g id="patch_16">
    <path d="M 143.83738 384.48 
L 194.249577 384.48 
L 194.249577 283.148156 
L 143.83738 283.148156 
z
" clip-path="url(#p91b4347865)" style="fill: #4b8bbe; stroke: #000000; stroke-width: 1.5; stroke-linejoin: miter"/>
   </g>
   <g id="patch_17">
    <path d="M 206.852626 384.48 
L 257.264822 384.48 
L 257.264822 286.236818 
L 206.852626 286.236818 
z
" clip-path="url(#p91b4347865)" style="fill: #4b8bbe; stroke: #000000; stroke-width: 1.5; stroke-linejoin: miter"/>
   </g>
   <g id="LineCollection_3">
    <path d="M 106.028233 250.416952 
L 106.028233 246.74087 
" clip-path="url(#p91b4347865)" style="fill: none; stroke: #1a1a1a; stroke-width: 1.5"/>
    <path d="M 169.043478 286.021023 
L 169.043478 280.27529 
" clip-path="url(#p91b4347865)" style="fill: none; stroke: #1a1a1a; stroke-width: 1.5"/>
    <path d="M 232.058724 288.481611 
L 232.058724 283.992024 
" clip-path="url(#p91b4347865)" style="fill: none; stroke: #1a1a1a; stroke-width: 1.5"/>
   </g>
   <g id="line2d_30">
    <g clip-path="url(#p91b4347865)">
     <use xlink:href="#m6d18dfb818" x="106.028233" y="250.416952" style="fill: #1a1a1a; stroke: #1a1a1a"/>
     <use xlink:href="#m6d18dfb818" x="169.043478" y="286.021023" style="fill: #1a1a1a; stroke: #1a1a1a"/>
     <use xlink:href="#m6d18dfb818" x="232.058724" y="288.481611" style="fill: #1a1a1a; stroke: #1a1a1a"/>
    </g>
   </g>
   <g id="line2d_31">
    <g clip-path="url(#p91b4347865)">
     <use xlink:href="#m6d18dfb818" x="106.028233" y="246.74087" style="fill: #1a1a1a; stroke: #1a1a1a"/>
     <use xlink:href="#m6d18dfb818" x="169.043478" y="280.27529" style="fill: #1a1a1a; stroke: #1a1a1a"/>
     <use xlink:href="#m6d18dfb818" x="232.058724" y="283.992024" style="fill: #1a1a1a; stroke: #1a1a1a"/>
    </g>
   </g>
   <g id="patch_18">
    <path d="M 72 384.48 
L 72 239.853913 
" style="fill: none; stroke: #000000; stroke-width: 1.5; stroke-linejoin: miter; stroke-linecap: square"/>
   </g>
   <g id="patch_19">
    <path d="M 72 384.48 
L 266.086957 384.48 
" style="fill: none; stroke: #000000; stroke-width: 1.5; stroke-linejoin: miter; stroke-linecap: square"/>
   </g>
   <g id="text_28">
    <!-- Accuracy (%) -->
    <g style="fill: #262626" transform="translate(124.694103 233.853913) scale(0.14 -0.14)">
     <defs>
      <path id="Arial-BoldMT-41" d="M 4597 0 
L 3591 0 
L 3191 1041 
L 1359 1041 
L 981 0 
L 0 0 
L 1784 4581 
L 2763 4581 
L 4597 0 
z
M 2894 1813 
L 2263 3513 
L 1644 1813 
L 2894 1813 
z
" transform="scale(0.015625)"/>
      <path id="Arial-BoldMT-63" d="M 3353 2338 
L 2488 2181 
Q 2444 2441 2289 2572 
Q 2134 2703 1888 2703 
Q 1559 2703 1364 2476 
Q 1169 2250 1169 1719 
Q 1169 1128 1367 884 
Q 1566 641 1900 641 
Q 2150 641 2309 783 
Q 2469 925 2534 1272 
L 3397 1125 
Q 3263 531 2881 228 
Q 2500 -75 1859 -75 
Q 1131 -75 698 384 
Q 266 844 266 1656 
Q 266 2478 700 2936 
Q 1134 3394 1875 3394 
Q 2481 3394 2839 3133 
Q 3197 2872 3353 2338 
z
" transform="scale(0.015625)"/>
      <path id="Arial-BoldMT-75" d="M 2644 0 
L 2644 497 
Q 2463 231 2167 78 
Q 1872 -75 1544 -75 
Q 1209 -75 943 72 
Q 678 219 559 484 
Q 441 750 441 1219 
L 441 3319 
L 1319 3319 
L 1319 1794 
Q 1319 1094 1367 936 
Q 1416 778 1544 686 
Q 1672 594 1869 594 
Q 2094 594 2272 717 
Q 2450 841 2515 1023 
Q 2581 1206 2581 1919 
L 2581 3319 
L 3459 3319 
L 3459 0 
L 2644 0 
z
" transform="scale(0.015625)"/>
      <path id="Arial-BoldMT-79" d="M 44 3319 
L 978 3319 
L 1772 963 
L 2547 3319 
L 3456 3319 
L 2284 125 
L 2075 -453 
Q 1959 -744 1854 -897 
Q 1750 -1050 1614 -1145 
Q 1478 -1241 1279 -1294 
Q 1081 -1347 831 -1347 
Q 578 -1347 334 -1294 
L 256 -606 
Q 463 -647 628 -647 
Q 934 -647 1081 -467 
Q 1228 -288 1306 -9 
L 44 3319 
z
" transform="scale(0.015625)"/>
     </defs>
     <use xlink:href="#Arial-BoldMT-41"/>
     <use xlink:href="#Arial-BoldMT-63" x="72.216797"/>
     <use xlink:href="#Arial-BoldMT-63" x="127.832031"/>
     <use xlink:href="#Arial-BoldMT-75" x="183.447266"/>
     <use xlink:href="#Arial-BoldMT-72" x="244.53125"/>
     <use xlink:href="#Arial-BoldMT-61" x="283.447266"/>
     <use xlink:href="#Arial-BoldMT-63" x="339.0625"/>
     <use xlink:href="#Arial-BoldMT-79" x="394.677734"/>
     <use xlink:href="#Arial-BoldMT-20" x="450.292969"/>
     <use xlink:href="#Arial-BoldMT-28" x="478.076172"/>
     <use xlink:href="#Arial-BoldMT-25" x="511.376953"/>
     <use xlink:href="#Arial-BoldMT-29" x="600.292969"/>
    </g>
   </g>
  </g>
  <g id="axes_4">
   <g id="patch_20">
    <path d="M 324.313043 384.48 
L 518.4 384.48 
L 518.4 239.853913 
L 324.313043 239.853913 
z
" style="fill: #ffffff"/>
   </g>
   <g id="matplotlib.axis_7">
    <g id="xtick_10">
     <g id="line2d_32">
      <g>
       <use xlink:href="#ma29a491b0d" x="358.341276" y="384.48" style="fill: #262626; stroke: #262626; stroke-width: 1.25"/>
      </g>
     </g>
     <g id="text_29">
      <!-- 1-back -->
      <g style="fill: #262626" transform="translate(341.834401 401.853594) scale(0.11 -0.11)">
       <use xlink:href="#ArialMT-31"/>
       <use xlink:href="#ArialMT-2d" x="55.615234"/>
       <use xlink:href="#ArialMT-62" x="88.916016"/>
       <use xlink:href="#ArialMT-61" x="144.53125"/>
       <use xlink:href="#ArialMT-63" x="200.146484"/>
       <use xlink:href="#ArialMT-6b" x="250.146484"/>
      </g>
     </g>
    </g>
    <g id="xtick_11">
     <g id="line2d_33">
      <g>
       <use xlink:href="#ma29a491b0d" x="421.356522" y="384.48" style="fill: #262626; stroke: #262626; stroke-width: 1.25"/>
      </g>
     </g>
     <g id="text_30">
      <!-- 2-back -->
      <g style="fill: #262626" transform="translate(404.849647 401.853594) scale(0.11 -0.11)">
       <use xlink:href="#ArialMT-32"/>
       <use xlink:href="#ArialMT-2d" x="55.615234"/>
       <use xlink:href="#ArialMT-62" x="88.916016"/>
       <use xlink:href="#ArialMT-61" x="144.53125"/>
       <use xlink:href="#ArialMT-63" x="200.146484"/>
       <use xlink:href="#ArialMT-6b" x="250.146484"/>
      </g>
     </g>
    </g>
    <g id="xtick_12">
     <g id="line2d_34">
      <g>
       <use xlink:href="#ma29a491b0d" x="484.371767" y="384.48" style="fill: #262626; stroke: #262626; stroke-width: 1.25"/>
      </g>
     </g>
     <g id="text_31">
      <!-- 3-back -->
      <g style="fill: #262626" transform="translate(467.864892 401.853594) scale(0.11 -0.11)">
       <use xlink:href="#ArialMT-33"/>
       <use xlink:href="#ArialMT-2d" x="55.615234"/>
       <use xlink:href="#ArialMT-62" x="88.916016"/>
       <use xlink:href="#ArialMT-61" x="144.53125"/>
       <use xlink:href="#ArialMT-63" x="200.146484"/>
       <use xlink:href="#ArialMT-6b" x="250.146484"/>
      </g>
     </g>
    </g>
   </g>
   <g id="matplotlib.axis_8">
    <g id="ytick_17">
     <g id="line2d_35">
      <g>
       <use xlink:href="#m7934691933" x="324.313043" y="384.48" style="fill: #262626; stroke: #262626; stroke-width: 1.25"/>
      </g>
     </g>
     <g id="text_32">
      <!-- 0 -->
      <g style="fill: #262626" transform="translate(308.696012 388.416797) scale(0.11 -0.11)">
       <use xlink:href="#ArialMT-30"/>
      </g>
     </g>
    </g>
    <g id="ytick_18">
     <g id="line2d_36">
      <g>
       <use xlink:href="#m7934691933" x="324.313043" y="349.546545" style="fill: #262626; stroke: #262626; stroke-width: 1.25"/>
      </g>
     </g>
     <g id="text_33">
      <!-- 1 -->
      <g style="fill: #262626" transform="translate(308.696012 353.483341) scale(0.11 -0.11)">
       <use xlink:href="#ArialMT-31"/>
      </g>
     </g>
    </g>
    <g id="ytick_19">
     <g id="line2d_37">
      <g>
       <use xlink:href="#m7934691933" x="324.313043" y="314.613089" style="fill: #262626; stroke: #262626; stroke-width: 1.25"/>
      </g>
     </g>
     <g id="text_34">
      <!-- 2 -->
      <g style="fill: #262626" transform="translate(308.696012 318.549886) scale(0.11 -0.11)">
       <use xlink:href="#ArialMT-32"/>
      </g>
     </g>
    </g>
    <g id="ytick_20">
     <g id="line2d_38">
      <g>
       <use xlink:href="#m7934691933" x="324.313043" y="279.679634" style="fill: #262626; stroke: #262626; stroke-width: 1.25"/>
      </g>
     </g>
     <g id="text_35">
      <!-- 3 -->
      <g style="fill: #262626" transform="translate(308.696012 283.616431) scale(0.11 -0.11)">
       <use xlink:href="#ArialMT-33"/>
      </g>
     </g>
    </g>
    <g id="ytick_21">
     <g id="line2d_39">
      <g>
       <use xlink:href="#m7934691933" x="324.313043" y="244.746178" style="fill: #262626; stroke: #262626; stroke-width: 1.25"/>
      </g>
     </g>
     <g id="text_36">
      <!-- 4 -->
      <g style="fill: #262626" transform="translate(308.696012 248.682975) scale(0.11 -0.11)">
       <use xlink:href="#ArialMT-34"/>
      </g>
     </g>
    </g>
   </g>
   <g id="patch_21">
    <path d="M 333.135178 384.48 
L 383.547374 384.48 
L 383.547374 255.019771 
L 333.135178 255.019771 
z
" clip-path="url(#pa3bc01bcd3)" style="fill: #4b8bbe; stroke: #000000; stroke-width: 1.5; stroke-linejoin: miter"/>
   </g>
   <g id="patch_22">
    <path d="M 396.150423 384.48 
L 446.56262 384.48 
L 446.56262 348.069188 
L 396.150423 348.069188 
z
" clip-path="url(#pa3bc01bcd3)" style="fill: #4b8bbe; stroke: #000000; stroke-width: 1.5; stroke-linejoin: miter"/>
   </g>
   <g id="patch_23">
    <path d="M 459.165669 384.48 
L 509.577866 384.48 
L 509.577866 353.260382 
L 459.165669 353.260382 
z
" clip-path="url(#pa3bc01bcd3)" style="fill: #4b8bbe; stroke: #000000; stroke-width: 1.5; stroke-linejoin: miter"/>
   </g>
   <g id="LineCollection_4">
    <path d="M 358.341276 263.298673 
L 358.341276 246.74087 
" clip-path="url(#pa3bc01bcd3)" style="fill: none; stroke: #1a1a1a; stroke-width: 1.5"/>
    <path d="M 421.356522 354.647982 
L 421.356522 341.490394 
" clip-path="url(#pa3bc01bcd3)" style="fill: none; stroke: #1a1a1a; stroke-width: 1.5"/>
    <path d="M 484.371767 358.418203 
L 484.371767 348.102562 
" clip-path="url(#pa3bc01bcd3)" style="fill: none; stroke: #1a1a1a; stroke-width: 1.5"/>
   </g>
   <g id="line2d_40">
    <g clip-path="url(#pa3bc01bcd3)">
     <use xlink:href="#m6d18dfb818" x="358.341276" y="263.298673" style="fill: #1a1a1a; stroke: #1a1a1a"/>
     <use xlink:href="#m6d18dfb818" x="421.356522" y="354.647982" style="fill: #1a1a1a; stroke: #1a1a1a"/>
     <use xlink:href="#m6d18dfb818" x="484.371767" y="358.418203" style="fill: #1a1a1a; stroke: #1a1a1a"/>
    </g>
   </g>
   <g id="line2d_41">
    <g clip-path="url(#pa3bc01bcd3)">
     <use xlink:href="#m6d18dfb818" x="358.341276" y="246.74087" style="fill: #1a1a1a; stroke: #1a1a1a"/>
     <use xlink:href="#m6d18dfb818" x="421.356522" y="341.490394" style="fill: #1a1a1a; stroke: #1a1a1a"/>
     <use xlink:href="#m6d18dfb818" x="484.371767" y="348.102562" style="fill: #1a1a1a; stroke: #1a1a1a"/>
    </g>
   </g>
   <g id="patch_24">
    <path d="M 324.313043 384.48 
L 324.313043 239.853913 
" style="fill: none; stroke: #000000; stroke-width: 1.5; stroke-linejoin: miter; stroke-linecap: square"/>
   </g>
   <g id="patch_25">
    <path d="M 324.313043 384.48 
L 518.4 384.48 
" style="fill: none; stroke: #000000; stroke-width: 1.5; stroke-linejoin: miter; stroke-linecap: square"/>
   </g>
   <g id="text_37">
    <!-- d' -->
    <g style="fill: #262626" transform="translate(415.416365 233.853913) scale(0.14 -0.14)">
     <defs>
      <path id="Arial-BoldMT-64" d="M 3503 0 
L 2688 0 
L 2688 488 
Q 2484 203 2207 64 
Q 1931 -75 1650 -75 
Q 1078 -75 670 386 
Q 263 847 263 1672 
Q 263 2516 659 2955 
Q 1056 3394 1663 3394 
Q 2219 3394 2625 2931 
L 2625 4581 
L 3503 4581 
L 3503 0 
z
M 1159 1731 
Q 1159 1200 1306 963 
Q 1519 619 1900 619 
Q 2203 619 2415 876 
Q 2628 1134 2628 1647 
Q 2628 2219 2422 2470 
Q 2216 2722 1894 2722 
Q 1581 2722 1370 2473 
Q 1159 2225 1159 1731 
z
" transform="scale(0.015625)"/>
      <path id="Arial-BoldMT-27" d="M 453 2953 
L 288 3806 
L 288 4581 
L 1244 4581 
L 1244 3806 
L 1100 2953 
L 453 2953 
z
" transform="scale(0.015625)"/>
     </defs>
     <use xlink:href="#Arial-BoldMT-64"/>
     <use xlink:href="#Arial-BoldMT-27" x="61.083984"/>
    </g>
   </g>
  </g>
 </g>
 <defs>
  <clipPath id="p38b69d98f0">
   <rect x="72" y="51.84" width="194.086957" height="144.626087"/>
  </clipPath>
  <clipPath id="pead58c3ce0">
   <rect x="324.313043" y="51.84" width="194.086957" height="144.626087"/>
  </clipPath>
  <clipPath id="p91b4347865">
   <rect x="72" y="239.853913" width="194.086957" height="144.626087"/>
  </clipPath>
  <clipPath id="pa3bc01bcd3">
   <rect x="324.313043" y="239.853913" width="194.086957" height="144.626087"/>
  </clipPath>
 </defs>
</svg>
